<?xml version="1.0" encoding="utf-8"?>
<!-- Generator: Adobe Illustrator 27.7.0, SVG Export Plug-In . SVG Version: 6.00 Build 0)  -->
<svg version="1.1" id="Ebene_1" xmlns="http://www.w3.org/2000/svg" xmlns:xlink="http://www.w3.org/1999/xlink" x="0px" y="0px"
	 viewBox="0 0 402 95" style="enable-background:new 0 0 402 95;" xml:space="preserve">
<style type="text/css">
	.st0{fill:#F23005;}
</style>
<g>
	<path class="st0" d="M27.5,69.3c0.8-1.4,2.5-4.8,5.2-10.1c2.3-4.5,6-11.1,11.2-19.8c3-5,5.8-9.2,8.3-12.7c1.5-2.1,2.9-3.2,4.2-3.3
		c0.8-0.1,1.4,0.1,2,0.6c0.5,0.4,0.8,0.9,0.8,1.5c0.1,0.9-0.3,2.5-1.2,4.6c-0.2,0.4-1.1,2.6-2.8,6.4c-3,6.9-5,11.8-6,14.7
		c-2.8,8-4.7,14.8-5.8,20.3c-0.6,3.3-0.9,5.7-0.7,7.2c0,0.3,0.1,0.7,0.2,1c0.3,1.1,0.4,1.7,0.4,1.9c0.1,0.8-0.1,1.6-0.7,2.3
		c-0.5,0.7-1,1.1-1.7,1.1c-0.8,0.1-1.5-0.3-2.1-1.2c-0.5-0.7-0.8-1.6-0.9-2.9c-0.8-7.9,4.1-24,14.8-48.5c-6.1,8.1-12.6,19.4-19.5,34
		c-1.5,3.2-2.8,5.3-3.9,6.5c-1.1,1.2-2.1,1.8-3.2,1.9s-1.9-0.3-2.5-1.1c-0.4-0.6-0.6-1.3-0.7-2.1c-0.7-7,2.2-18.3,8.9-34.1
		c-2.5,3.2-4.8,6.8-7,10.8c-4,7.5-7.4,15.1-10.3,22.8c-1.4,3.7-3,8.7-4.9,14.8c-0.9,3.1-2.2,4.8-3.9,5c-0.4,0-0.8-0.1-1.1-0.4
		c-0.2-0.2-0.4-0.5-0.4-0.9c-0.1-0.5,0.3-2,1.1-4.5c1.6-5.4,2.9-9.4,3.9-11.8c4.7-12.3,10.7-24,17.7-35.1c3-4.6,5-7.7,6.2-9.1
		c1.2-1.5,2.3-2.2,3.2-2.3c0.6-0.1,1.1,0.1,1.7,0.6c0.7,0.5,1.1,1.2,1.2,1.9c0.1,0.8-0.4,2.3-1.3,4.3c-2.8,5.8-5.2,12.2-7.3,19.3
		C28.8,59.6,27.8,65,27.5,69.3z"/>
	<path class="st0" d="M67.8,51c2.3-0.2,3.6,1,3.9,3.8c0.4,3.7-0.8,8.6-3.6,14.6c-3.1,6.5-6.4,10-9.8,10.4c-1.6,0.2-2.9-0.5-3.8-1.9
		c-0.5-0.7-0.8-1.6-0.9-2.6c-0.4-3.6,0.4-7.6,2.4-12c1.9-4.1,4.2-7.4,7.1-9.9C64.7,52,66.3,51.2,67.8,51z M65.1,67.2
		c-0.8-0.5-1.1-0.9-1.2-1.2c0-0.2,0.4-0.9,1.1-2c2.2-3.1,3.2-5.5,3-7.2c0-0.2-0.1-0.4-0.3-0.6c-0.3-0.4-0.6-0.6-1.1-0.5
		c-0.9,0.1-2.1,1.1-3.6,3c-2,2.5-3.4,4.9-4.4,7.4c-1.1,2.8-1.5,5.2-1.3,6.9c0,0.5,0.2,0.9,0.5,1.2c0.4,0.5,0.9,0.7,1.5,0.6
		c1.3-0.1,2.7-1.3,4-3.5c0.6-0.9,1-1.8,1.4-2.8C65,67.7,65.1,67.3,65.1,67.2z"/>
	<path class="st0" d="M84,54.4c2.2-2.3,4.2-3.5,6.1-3.7c1.2-0.1,2.2,0.3,3,1.2c0.8,0.8,1.2,1.8,1.4,2.9c0.2,2.2-0.2,4.9-1.3,8.1
		c-1.2,3.6-3.2,7-5.9,10.3c-2.2,2.7-4.4,4.2-6.7,4.4c-0.8,0.1-1.6,0-2.3-0.2c-0.7-0.2-1.4-0.6-2-1.2c-0.2,0.4-0.3,0.7-0.3,0.8
		c-0.4,1.1-0.6,1.7-0.8,2c-0.2,0.2-0.4,0.4-0.8,0.4c-0.5,0.1-1-0.2-1.5-0.7c-0.3-0.4-0.5-0.8-0.6-1.2c-0.1-0.8,1.1-4.9,3.5-12.3
		c3.4-10.4,7.6-20.8,12.4-31.2c2-4.3,3.2-6.8,3.6-7.5c0.5-0.9,1-1.4,1.5-1.4c0.6-0.1,1.2,0.2,1.7,0.7c0.3,0.4,0.5,0.8,0.6,1.3
		c0.1,0.6-0.1,1.3-0.6,2.3c-0.1,0.2-0.8,1.7-2.2,4.6C88.7,42.2,85.8,49,84,54.4z M78.9,73.2c0.5,0.2,0.9,0.3,1.4,0.3
		c2.4-0.3,4.8-2.6,7-7.1c1.1-2,1.8-4,2.4-5.9c0.5-1.7,0.7-3,0.6-3.8c-0.1-0.6-0.2-1-0.5-1.2c-0.3-0.2-0.7-0.3-1.2-0.3
		c-1.3,0.1-2.7,1.2-4.4,3.1c-1.6,1.9-3.1,4.6-4.5,8c-0.7,1.6-1.2,3.2-1.7,4.6L77.5,72C77.9,72.6,78.4,72.9,78.9,73.2z"/>
	<path class="st0" d="M106.4,48.9c0.5,0,0.9,0.1,1.2,0.4c0.3,0.3,0.4,0.6,0.4,0.9c0.1,0.5-0.3,1.4-0.9,2.6c-2.4,4.8-4.1,8.7-5,11.7
		c-1,3.1-1.8,6.3-2.5,9.5c-0.3,1.4-0.9,2.2-1.9,2.3c-0.6,0.1-1-0.1-1.4-0.5c-0.3-0.3-0.5-0.7-0.6-1.1c-0.1-0.8,0.5-3.7,1.8-8.6
		c1-3.9,2.8-8.2,5.4-13.1c0.8-1.6,1.5-2.6,1.9-3.2C105.4,49.2,105.9,48.9,106.4,48.9z M112.7,32.5c1.3-0.1,1.9,0.4,2.1,1.7
		c0.1,1.2-0.4,2.5-1.4,4.1c-1,1.5-2.1,2.3-3.2,2.4c-0.5,0.1-1-0.1-1.4-0.4c-0.4-0.3-0.6-0.8-0.6-1.3c-0.1-1.3,0.4-2.8,1.8-4.5
		C110.9,33.3,111.8,32.6,112.7,32.5z"/>
	<path class="st0" d="M114.7,59.2c-0.6,2.3-1,4.1-1.3,5.5c-0.3,1.4-0.4,2.3-0.3,2.9c0.1,0.7,0.4,1,1.1,0.9c1-0.1,2.2-1.2,3.6-3.2
		c0.7-1,1.6-2.8,2.8-5.3c0.5-1,1-1.5,1.7-1.6c0.7-0.1,1.1,0.2,1.2,0.9c0.1,1.2-1,3.8-3.4,7.7c-2.5,4.1-4.9,6.3-7.4,6.6
		c-1.1,0.1-2-0.2-2.7-1.1c-0.5-0.6-0.9-1.3-1-2.3c-0.2-1.6,0.1-3.8,0.7-6.6c0.7-2.9,1.7-6.4,3.1-10.5c3.7-10.5,7.7-19.3,12-26.4
		c3.4-5.6,6.4-8.6,9.1-8.9c0.8-0.1,1.5,0.2,2.1,0.7c0.6,0.6,1,1.3,1.1,2.1c0.4,3.9-2.4,10.7-8.4,20.5c-2.7,4.4-6,8.8-9.9,13.3
		C117.9,55.7,116.5,57.2,114.7,59.2z M117,52.3c5.3-5.6,9.8-12.4,13.5-20.4c1.9-4.2,2.9-6.9,2.7-8.2c-0.1-0.6-0.4-0.9-0.9-0.8
		c-1.5,0.2-4,3.5-7.4,10C122.2,38.2,119.5,44.7,117,52.3z"/>
	<path class="st0" d="M131.3,68.4c0.6-0.1,1.2,0.2,1.6,0.7c0.3,0.3,0.5,0.8,0.6,1.3c0.1,1.3-0.1,2.7-0.6,4.2
		c-0.6,1.6-1.5,2.5-2.7,2.6c-1.3,0.1-2-0.5-2.1-2c-0.2-1.4,0.1-3,0.9-4.6C129.5,69.3,130.4,68.5,131.3,68.4z"/>
	<path class="st0" d="M149.8,66c0.7-0.3,1.3-0.5,1.6-0.7c6.2-2.7,10.7-4.1,13.5-4.4c2.1-0.2,3.2,0.4,3.4,2c0.1,0.6-0.1,1.2-0.5,1.7
		c-0.4,0.5-0.9,0.8-1.5,0.9c-0.3,0-0.7,0-1.2,0c-0.5,0-0.8,0-1.1,0c-1.6,0.2-3.8,0.8-6.3,1.8c-0.9,0.4-2.7,1.4-5.4,2.9
		c-1.8,1-3.3,1.6-4.5,1.7c-0.9,0.1-1.6-0.2-2.3-1c-0.6-0.7-1-1.5-1-2.3c-0.1-1,0.3-2.8,1.2-5.4c2.7-7.9,5.7-15.1,9-21.5
		c4.8-9.2,8.5-16,11.3-20.4c0.7-1.2,1.5-2.4,2.2-3.6c1.2-2,2.3-3,3.3-3.1c0.5-0.1,1,0.1,1.4,0.4c0.4,0.4,0.6,0.7,0.7,1.2
		c0.1,0.6-0.3,1.6-1.1,3c-0.2,0.3-1.2,1.9-3,4.9c-3.4,5.6-5.9,9.9-7.6,12.9c-1.6,3-3.4,6.4-5.2,10.2C153,54.8,150.8,61,149.8,66z"/>
	<path class="st0" d="M174.2,58.8l0.1,0.8c0.1,0.6,0.3,1.1,0.6,1.5c0.8,1,2,1.3,3.6,1.2c3.5-0.4,7.2-3.5,11.2-9.3
		c0.7-1,1.3-1.5,1.9-1.6c0.3,0,0.6,0.1,0.9,0.4c0.2,0.2,0.3,0.4,0.3,0.6c0.1,1.1-1,3.1-3.4,5.9c-1.9,2.3-3.9,4.1-6.1,5.7
		c-2.2,1.5-4.4,2.4-6.4,2.6c-2.1,0.2-3.8-0.3-5.2-1.6c-0.9-0.9-1.5-2.2-1.6-4c-0.5-4.7,1.2-9.5,5.2-14.5c3.2-4.1,6.1-6.2,8.8-6.5
		c0.7-0.1,1.4,0.1,2,0.5c0.8,0.5,1.2,1.2,1.3,2.2c0.2,1.5-0.3,3.4-1.5,5.6C183.5,53,179.6,56.5,174.2,58.8z M174.8,55.5
		c1.9-0.9,3.3-1.8,4.3-2.7c1.8-1.7,3.2-3.6,4.1-5.6c0.3-0.7,0.5-1.3,0.4-1.9c-0.1-0.6-0.4-0.8-0.9-0.8c-0.7,0.1-1.7,0.7-2.9,2
		C177.6,48.7,176,51.7,174.8,55.5z"/>
	<path class="st0" d="M204.9,41.5c2.2-2.3,4.2-3.5,6.1-3.7c1.2-0.1,2.2,0.3,3,1.2c0.8,0.8,1.2,1.8,1.4,2.9c0.2,2.2-0.2,4.9-1.3,8.1
		c-1.2,3.6-3.2,7-5.9,10.3c-2.2,2.7-4.4,4.2-6.7,4.4c-0.8,0.1-1.6,0-2.3-0.2c-0.7-0.2-1.4-0.6-2-1.2c-0.2,0.4-0.3,0.7-0.3,0.8
		c-0.4,1.1-0.6,1.7-0.8,2c-0.2,0.2-0.4,0.4-0.8,0.4c-0.5,0.1-1-0.2-1.5-0.7c-0.3-0.4-0.5-0.8-0.6-1.2c-0.1-0.8,1.1-4.9,3.5-12.3
		c3.4-10.4,7.6-20.8,12.4-31.2c2-4.3,3.2-6.8,3.6-7.5c0.5-0.9,1-1.4,1.5-1.4c0.6-0.1,1.2,0.2,1.7,0.7c0.3,0.4,0.5,0.8,0.6,1.3
		c0.1,0.6-0.1,1.3-0.6,2.3c-0.1,0.2-0.8,1.7-2.2,4.6C209.6,29.4,206.6,36.2,204.9,41.5z M199.8,60.3c0.5,0.2,0.9,0.3,1.4,0.3
		c2.4-0.3,4.8-2.6,7-7.1c1.1-2,1.8-4,2.4-5.9c0.5-1.7,0.7-3,0.6-3.8c-0.1-0.6-0.2-1-0.5-1.2c-0.3-0.2-0.7-0.3-1.2-0.3
		c-1.3,0.1-2.7,1.2-4.4,3.1c-1.6,1.9-3.1,4.6-4.5,8c-0.7,1.6-1.2,3.2-1.7,4.6l-0.4,1.2C198.8,59.7,199.3,60.1,199.8,60.3z"/>
	<path class="st0" d="M221.4,53.8l0.1,0.8c0.1,0.6,0.3,1.1,0.6,1.5c0.8,1,2,1.3,3.6,1.2c3.5-0.4,7.2-3.5,11.2-9.3
		c0.7-1,1.3-1.5,1.9-1.6c0.3,0,0.6,0.1,0.9,0.4c0.2,0.2,0.3,0.4,0.3,0.6c0.1,1.1-1,3.1-3.4,5.9c-1.9,2.3-3.9,4.1-6.1,5.7
		c-2.2,1.5-4.4,2.4-6.4,2.6c-2.1,0.2-3.8-0.3-5.2-1.6c-0.9-0.9-1.5-2.2-1.6-4c-0.5-4.7,1.2-9.5,5.2-14.5c3.2-4.1,6.1-6.2,8.8-6.5
		c0.7-0.1,1.4,0.1,2,0.5c0.8,0.5,1.2,1.2,1.3,2.2c0.2,1.5-0.3,3.4-1.5,5.6C230.8,48,226.9,51.5,221.4,53.8z M222,50.5
		c1.9-0.9,3.3-1.8,4.3-2.7c1.8-1.7,3.2-3.6,4.1-5.6c0.3-0.7,0.5-1.3,0.4-1.9c-0.1-0.6-0.4-0.8-0.9-0.8c-0.7,0.1-1.7,0.7-2.9,2
		C224.9,43.7,223.2,46.7,222,50.5z"/>
	<path class="st0" d="M248.6,44.6c0.3-0.4,0.6-0.7,0.9-1.1c5.2-6.3,8.8-9.5,10.8-9.7c1.1-0.1,1.7,0.4,1.8,1.6
		c0.1,0.8-0.3,1.9-1.1,3.1c-4.7,6.8-6.7,12.5-6.2,17.2c0.2,1.5,0.7,2.9,1.7,4.2c0.5,0.6,0.7,1.1,0.7,1.4c0,0.3-0.1,0.7-0.4,1
		c-0.3,0.4-0.7,0.7-1.2,0.7c-1.1,0.1-2.2-0.5-3.1-1.9c-0.9-1.3-1.4-2.9-1.7-4.8c-0.4-3.8,0.6-8.1,2.9-12.9c-3.5,2.8-6.6,7.5-9.2,14
		c-0.7,1.6-1.5,2.4-2.4,2.5c-0.5,0.1-0.9-0.1-1.2-0.4c-0.4-0.3-0.7-0.8-0.7-1.4c-0.2-1.5,1.1-5.6,3.9-12.3c1.5-3.6,2.7-6.3,3.5-8
		c0.9-1.6,1.7-2.5,2.5-2.6c0.4,0,0.7,0.1,1.1,0.4c0.4,0.3,0.7,0.8,0.7,1.3c0.1,0.6-0.2,1.5-0.9,2.8C250,41.5,249.2,43.1,248.6,44.6z
		"/>
	<path class="st0" d="M280.6,27.6c1.7-0.2,3,0,4,0.5c0.9,0.5,1.5,1.4,1.6,2.7c0.2,1.6-0.3,3.3-1.3,5c-1,1.6-2.6,2.9-4.9,4.1
		c-1.2,0.6-2.3,1-3.1,1c-1.2,0.1-1.8-0.3-1.9-1.4c-0.1-0.7,0.2-1.3,0.8-1.7c0.2-0.1,1.1-0.4,2.8-1c1-0.3,1.9-0.9,2.7-1.8
		c0.7-0.7,1-1.5,0.9-2.2c-0.1-0.6-0.3-1-0.6-1.2c-0.4-0.2-0.9-0.3-1.5-0.3c-1.6,0.2-3.3,1-5.1,2.5c-2.1,1.7-3,3.6-2.8,5.6
		c0.2,1.4,1.1,3.2,2.8,5.2c1.9,2.2,2.9,4.1,3.1,5.7c0.3,2.4-0.6,4.5-2.6,6.1c-1.2,1-2.7,1.6-4.4,1.8c-2.7,0.3-4.8-0.5-6.4-2.2
		c-1.1-1.3-1.8-2.8-2-4.7c-0.2-2.2,0.1-4,1.1-5.6c0.6-1,1.3-1.6,2.1-1.7c0.7-0.1,1.1,0.2,1.1,0.7c0,0.2-0.1,0.6-0.3,1
		c-0.5,1.3-0.7,2.7-0.5,4.3c0.1,1.4,0.8,2.5,1.8,3.3c1,0.7,2,1.1,3.1,0.9c1.1-0.1,1.9-0.6,2.4-1.4c0.4-0.7,0.6-1.5,0.5-2.4
		c-0.1-1.2-1-2.6-2.5-4.3c-2.1-2.4-3.3-4.6-3.5-6.7c-0.3-2.8,1-5.4,3.8-7.9C274.3,29.3,277.3,28,280.6,27.6z"/>
	<path class="st0" d="M299.4,41.9c-2,3.5-3.6,5.9-4.6,7.2c-1.3,1.7-2.4,3-3.3,3.9c-1.1,1-2.1,1.5-3.1,1.6c-1,0.1-1.8-0.3-2.4-1.2
		c-0.5-0.7-0.8-1.5-0.9-2.4c-0.3-3,1-7.4,4.1-13.1c2.8-5.2,4.9-7.8,6.5-8c0.4,0,0.8,0.1,1.2,0.4c0.4,0.3,0.6,0.7,0.6,1.1
		c0.1,0.6-0.4,1.5-1.4,2.7c-2.1,2.5-3.8,5.3-5.2,8.4c-1.2,2.6-1.7,4.3-1.7,5c0.1,0.6,0.3,0.8,0.8,0.8c1.7-0.2,4.9-4.2,9.7-12
		c1.6-2.5,2.5-4,2.9-4.4c0.7-0.7,1.4-1.2,2.1-1.2c0.5-0.1,0.9,0,1.3,0.3c0.3,0.2,0.5,0.5,0.6,0.8c0,0.3-0.5,1.8-1.6,4.4
		c-2.5,5.7-3.6,9.4-3.4,11.3c0.1,0.7,0.4,1.1,1,1c1-0.1,2.3-1.4,3.8-3.9c1.4-2.3,2.7-5.3,3.8-8.8c0.5-1.5,0.8-3.5,1-5.9
		c0.3-2.8,1.2-4.2,2.9-4.4c0.9-0.1,1.5,0.4,1.6,1.4c0.4,3.6-1.1,8.9-4.5,15.7c-3.5,7.1-6.7,10.8-9.6,11.1c-2.1,0.2-3.4-1-3.6-3.6
		C297.8,48,298.3,45.2,299.4,41.9z"/>
	<path class="st0" d="M320.8,43.3l0.1,0.8c0.1,0.6,0.3,1.1,0.6,1.5c0.8,1,2,1.3,3.6,1.2c3.5-0.4,7.2-3.5,11.2-9.3
		c0.7-1,1.3-1.5,1.9-1.6c0.3,0,0.6,0.1,0.9,0.4c0.2,0.2,0.3,0.4,0.3,0.6c0.1,1.1-1,3.1-3.4,5.9c-1.9,2.3-3.9,4.1-6.1,5.7
		c-2.2,1.5-4.4,2.4-6.4,2.6c-2.1,0.2-3.8-0.3-5.2-1.6c-0.9-0.9-1.5-2.2-1.6-4c-0.5-4.7,1.2-9.5,5.2-14.5c3.2-4.1,6.1-6.2,8.8-6.5
		c0.7-0.1,1.4,0.1,2,0.5c0.8,0.5,1.2,1.2,1.3,2.2c0.2,1.5-0.3,3.4-1.5,5.6C330.2,37.5,326.3,41,320.8,43.3z M321.4,39.9
		c1.9-0.9,3.3-1.8,4.3-2.7c1.8-1.7,3.2-3.6,4.1-5.6c0.3-0.7,0.5-1.3,0.4-1.9c-0.1-0.6-0.4-0.8-0.9-0.8c-0.7,0.1-1.7,0.7-2.9,2
		C324.3,33.1,322.6,36.1,321.4,39.9z"/>
	<path class="st0" d="M348,34.6c2.4-3.2,5.3-6.4,8.5-9.5c1.2-1.1,2.4-2.2,3.8-3.2c0.7-0.5,1.1-0.8,1.3-0.8c0.4,0,0.9,0.2,1.3,0.8
		c0.3,0.3,0.4,0.6,0.5,0.9c0.1,0.5-0.4,1.2-1.4,2.2c-2.6,2.6-3.8,4.4-3.7,5.5c0.1,0.6,0.5,0.9,1.2,0.8c1.2-0.1,3.1-1.3,5.9-3.6
		c0.5-0.4,0.9-0.6,1.2-0.6c0.2,0,0.5,0.1,0.7,0.3c0.3,0.2,0.4,0.5,0.5,0.8c0.1,0.8-0.9,2.2-3.1,4.2c-2.3,2.1-4.5,3.3-6.7,3.5
		c-0.9,0.1-1.7-0.1-2.5-0.4c-0.7-0.3-1.1-1-1.2-2c-0.1-0.7,0.1-1.5,0.6-2.5c-2,1.8-4.3,4.7-6.9,8.8c-1.5,2.5-2.9,5.6-4.2,9.2
		c-0.5,1.3-1.2,2.1-2.2,2.2c-1,0.1-1.6-0.3-1.7-1.3c-0.1-0.9,0.4-3.6,1.6-7.8c1.7-6.4,3.7-11.4,6-15c1.4-2.3,2.6-3.4,3.7-3.6
		c0.4,0,0.7,0,1,0.2c0.4,0.2,0.6,0.6,0.7,1c0,0.4-0.2,1-0.6,1.8c-0.1,0.2-0.7,1.2-1.9,3C349.3,31.2,348.5,32.9,348,34.6z"/>
	<path class="st0" d="M380.4,17.9c-1.5,3-2.8,6.3-4,10c-1.7,5.2-2.4,9-2.1,11.4c0.1,0.7,0.3,1.2,0.6,1.5c0.3,0.3,0.8,0.5,1.4,0.4
		c1.4-0.1,2.9-1.6,4.6-4.5c1.1-1.7,2-3.5,2.8-5.2c0.4-1,1-1.5,1.6-1.6c0.4,0,0.7,0.1,1,0.3c0.2,0.2,0.4,0.5,0.4,0.7
		c0.1,1-1,3.5-3.3,7.3c-2.8,4.6-5.5,7.1-8.2,7.4c-1.4,0.2-2.7-0.4-3.8-1.6c-0.7-0.8-1.1-1.9-1.3-3.5c-0.4-3.4,0.2-7.4,1.7-12.1
		c0.4-1.2,1.4-4,3.1-8.5c-0.7,0.3-1.3,0.4-1.7,0.5c-0.6,0.1-1.1,0-1.6-0.3c-0.7-0.3-1-0.8-1.1-1.4c-0.1-0.7,0.3-1.3,1-1.8
		c0.2-0.1,1.2-0.4,3-0.9c0.7-0.2,1.6-0.5,2.8-1.1c0.8-1.9,2.1-4.4,4-7.6c1-1.8,1.8-3,2.2-3.5c0.6-0.8,1.1-1.2,1.6-1.2
		c0.4,0,0.7,0.1,1.1,0.5c0.4,0.3,0.6,0.7,0.6,1c0.1,0.7-0.5,2.2-1.9,4.5c-0.9,1.5-1.5,2.7-1.9,3.6c3-1.2,5.2-1.8,6.5-2
		c1.5-0.2,2.4,0.4,2.5,1.7c0.1,0.6-0.1,1.1-0.6,1.5c-0.3,0.2-1,0.4-2.1,0.6c-0.5,0-2.5,0.8-6.1,2.3C382.3,17,381.4,17.5,380.4,17.9z
		"/>
	<path class="st0" d="M392.4,40.7c0.6-0.1,1.2,0.2,1.6,0.7c0.3,0.3,0.5,0.8,0.6,1.3c0.1,1.3-0.1,2.7-0.6,4.2
		c-0.6,1.6-1.5,2.5-2.7,2.6c-1.3,0.1-2-0.5-2.1-2c-0.2-1.4,0.1-3,0.9-4.6C390.6,41.6,391.5,40.8,392.4,40.7z"/>
</g>
</svg>
