<?xml version="1.0" encoding="utf-8"?>
<!-- Generator: Adobe Illustrator 21.0.0, SVG Export Plug-In . SVG Version: 6.00 Build 0)  -->
<svg version="1.1" id="Ebene_1" xmlns="http://www.w3.org/2000/svg" xmlns:xlink="http://www.w3.org/1999/xlink" x="0px" y="0px"
	 viewBox="0 0 60 60" style="enable-background:new 0 0 60 60;" xml:space="preserve">
<style type="text/css">
	.st0{fill:#FF9800;}
	.st1{fill:#FFFFFF;}
</style>
<g>
	<circle class="st0" cx="30" cy="30" r="28"/>
</g>
<g>
	<path class="st1" d="M14.9,38.6c0.1-0.3,0.6-0.6,1.6-1.1c0.3-0.2,0.7-0.4,1.1-0.6c0.5-0.3,0.9-0.5,1.3-0.7c0.4-0.2,0.8-0.4,1.1-0.7
		c0.1,0,0.2-0.2,0.5-0.4s0.5-0.4,0.8-0.5c0.2-0.1,0.4-0.1,0.6-0.1c0.3,0,0.6,0.2,1.1,0.6c0.4,0.4,0.8,0.8,1.2,1.3
		c0.4,0.5,0.7,0.9,1.1,1.3c0.4,0.4,0.7,0.6,1,0.6c0.1,0,0.3,0,0.5-0.1c0.2-0.1,0.3-0.1,0.4-0.2c0.1,0,0.3-0.1,0.5-0.3
		c0.2-0.1,0.4-0.2,0.4-0.2c1.9-1.1,3.6-2.3,5-3.7c1.4-1.4,2.6-3,3.7-5c0,0,0.1-0.2,0.2-0.4c0.1-0.2,0.2-0.4,0.3-0.5
		c0-0.1,0.1-0.2,0.2-0.4c0.1-0.2,0.1-0.3,0.1-0.5c0-0.3-0.2-0.6-0.6-1c-0.4-0.4-0.8-0.8-1.3-1.1c-0.5-0.4-0.9-0.7-1.3-1.2
		c-0.4-0.4-0.6-0.8-0.6-1.1c0-0.2,0-0.4,0.1-0.6c0.1-0.2,0.3-0.5,0.5-0.8c0.2-0.3,0.3-0.5,0.4-0.5c0.2-0.4,0.4-0.7,0.7-1.1
		s0.5-0.9,0.7-1.3c0.3-0.5,0.5-0.9,0.6-1.1c0.5-1,0.9-1.5,1.1-1.6c0.1,0,0.2-0.1,0.4-0.1c0.4,0,0.9,0.1,1.5,0.2
		c0.6,0.1,1.1,0.3,1.5,0.4c0.7,0.3,1.5,1.2,2.2,2.6c0.7,1.3,1.1,2.6,1.1,3.9c0,0.4,0,0.8-0.1,1.1c0,0.4-0.1,0.8-0.3,1.2
		c-0.1,0.4-0.2,0.8-0.3,1c-0.1,0.2-0.2,0.6-0.4,1.2c-0.2,0.6-0.3,0.9-0.4,1c-0.5,1.4-1.1,2.6-1.8,3.7c-1.1,1.8-2.6,3.7-4.6,5.6
		c-1.9,1.9-3.8,3.5-5.6,4.6c-1.1,0.7-2.3,1.3-3.7,1.8c-0.1,0-0.5,0.2-1,0.4c-0.6,0.2-1,0.4-1.2,0.4c-0.2,0.1-0.6,0.2-1,0.3
		c-0.4,0.1-0.9,0.2-1.2,0.3s-0.7,0.1-1.1,0.1c-1.3,0-2.6-0.4-3.9-1.1c-1.4-0.8-2.3-1.5-2.6-2.2c-0.2-0.4-0.3-0.8-0.4-1.5
		c-0.1-0.6-0.2-1.1-0.2-1.5C14.8,38.8,14.8,38.7,14.9,38.6z"/>
</g>
</svg>
