<?xml version="1.0" encoding="utf-8"?>
<!-- Generator: Adobe Illustrator 21.0.0, SVG Export Plug-In . SVG Version: 6.00 Build 0)  -->
<svg version="1.1" id="Ebene_1" xmlns="http://www.w3.org/2000/svg" xmlns:xlink="http://www.w3.org/1999/xlink" x="0px" y="0px"
	 viewBox="0 0 220 65" style="enable-background:new 0 0 220 65;" xml:space="preserve">
<style type="text/css">
	.st0{fill:#808080;}
	.st1{fill:#FF9800;}
	.st2{fill:#FFFFFF;}
</style>
<g>
	<path class="st0" d="M91,5.3h21.3c0.2,0,0.4,0.1,0.6,0.2c0.2,0.2,0.2,0.4,0.2,0.6v5c0,0.2-0.1,0.4-0.2,0.6
		c-0.2,0.2-0.4,0.2-0.6,0.2h-6.6v14.1c0,0.2-0.1,0.4-0.2,0.6c-0.2,0.2-0.4,0.2-0.6,0.2h-6.3c-0.2,0-0.4-0.1-0.6-0.2
		c-0.2-0.2-0.2-0.4-0.2-0.6V12H91c-0.2,0-0.4-0.1-0.6-0.2c-0.2-0.2-0.2-0.4-0.2-0.6v-5c0-0.2,0.1-0.4,0.2-0.6
		C90.6,5.4,90.8,5.3,91,5.3z"/>
	<path class="st0" d="M139.3,14.3V18c0,2.1-0.5,3.8-1.5,5.2s-2.4,2.4-4,2.9c-1.7,0.6-3.6,0.9-5.9,0.9c-2.3,0-4.2-0.3-5.9-0.9
		c-1.7-0.6-3-1.6-4-2.9c-1-1.4-1.5-3.1-1.5-5.2v-3.5c0-3,1.1-5.3,3.2-6.8c2.1-1.5,4.9-2.3,8.3-2.3s6.1,0.8,8.3,2.3
		C138.3,9.1,139.3,11.3,139.3,14.3z M124.7,13.8v4.7c0,0.8,0.3,1.4,0.8,1.8c0.6,0.4,1.3,0.6,2.3,0.6c1,0,1.7-0.2,2.3-0.7
		s0.8-1.1,0.8-1.9v-4.6c0-0.8-0.3-1.4-0.8-1.9c-0.6-0.4-1.3-0.7-2.3-0.7c-1,0-1.7,0.2-2.3,0.6C125,12.4,124.7,13,124.7,13.8z"/>
	<path class="st0" d="M166.3,26c0,0.1,0.1,0.2,0.1,0.3c0,0.1-0.1,0.3-0.2,0.4c-0.1,0.1-0.3,0.2-0.5,0.2h-7c-0.6,0-1-0.3-1.3-0.8
		l-2.7-6.1h-2.6v6c0,0.2-0.1,0.4-0.2,0.6c-0.2,0.2-0.4,0.2-0.6,0.2h-6.7c-0.2,0-0.4-0.1-0.6-0.2c-0.2-0.2-0.2-0.4-0.2-0.6V6.2
		c0-0.2,0.1-0.4,0.2-0.6c0.2-0.2,0.4-0.2,0.6-0.2h12c2.8,0,5,0.7,6.7,2c1.6,1.3,2.5,3.2,2.5,5.5c0,2.8-1.1,4.8-3.2,6.1L166.3,26z
		 M152.1,11.1v3.3h3.9c0.5,0,0.8-0.1,1-0.4c0.2-0.3,0.4-0.7,0.4-1.1c0-0.5-0.1-0.8-0.4-1.2c-0.2-0.3-0.6-0.5-1.1-0.5H152.1z"/>
	<path class="st0" d="M177.9,20.9h12.3c0.2,0,0.4,0.1,0.6,0.2c0.2,0.2,0.2,0.4,0.2,0.6v4.3c0,0.2-0.1,0.4-0.2,0.6
		c-0.2,0.2-0.4,0.2-0.6,0.2h-19.5c-0.2,0-0.4-0.1-0.6-0.2c-0.2-0.2-0.2-0.4-0.2-0.6V6.2c0-0.2,0.1-0.4,0.2-0.6
		c0.2-0.2,0.4-0.2,0.6-0.2h19.2c0.2,0,0.4,0.1,0.6,0.2c0.2,0.2,0.2,0.4,0.2,0.6v4.3c0,0.2-0.1,0.4-0.2,0.6c-0.2,0.2-0.4,0.2-0.6,0.2
		h-12v1.9h10.3c0.2,0,0.4,0.1,0.6,0.2c0.2,0.2,0.2,0.4,0.2,0.6v4c0,0.2-0.1,0.4-0.2,0.6c-0.2,0.2-0.4,0.2-0.6,0.2h-10.3V20.9z"/>
	<path class="st1" d="M197.8,10.7c0-1.4,0.7-2.7,2-3.8c1.4-1.1,3.3-1.6,5.7-1.6c2.4,0,4.3,0.5,5.5,1.6c1.3,1.1,1.9,2.3,1.9,3.8
		c0,2.1-1.3,3.9-3.8,5.4l2,1.9c0.4-0.3,0.9-1,1.4-2.1c0.1-0.2,0.3-0.3,0.6-0.3h5c0.2,0,0.3,0,0.4,0.1c0.1,0.1,0.2,0.2,0.2,0.4
		c0,0.6-0.4,1.5-1.3,2.8c-0.8,1.3-1.6,2.3-2.4,3l3.7,3.9c0.1,0.1,0.2,0.3,0.2,0.4c0,0.2-0.1,0.3-0.2,0.4c-0.1,0.1-0.2,0.2-0.4,0.2
		h-6.5c-0.3,0-0.5-0.1-0.8-0.3l-0.8-0.8c-1.8,0.8-3.8,1.2-5.9,1.2c-2.8,0-5-0.5-6.5-1.6c-1.5-1.1-2.3-2.7-2.3-4.8
		c0-2.3,1.3-4.2,4-5.6C198.4,13.5,197.8,12.1,197.8,10.7z M202.6,20c0,0.5,0.2,0.9,0.6,1.3c0.4,0.3,0.9,0.5,1.6,0.5
		c0.6,0,1.1-0.1,1.4-0.3l-2.7-2.6C202.8,19.1,202.6,19.5,202.6,20z M205.7,10c-0.3,0-0.5,0.1-0.8,0.3c-0.2,0.2-0.3,0.5-0.3,0.8
		c0,0.3,0.3,0.8,0.9,1.3c0.9-0.4,1.3-0.9,1.3-1.5C206.8,10.3,206.4,10,205.7,10z"/>
	<path class="st0" d="M91,38.6h21.3c0.2,0,0.4,0.1,0.6,0.2c0.2,0.2,0.2,0.4,0.2,0.6v5c0,0.2-0.1,0.4-0.2,0.6
		c-0.2,0.2-0.4,0.2-0.6,0.2h-6.6v14.1c0,0.2-0.1,0.4-0.2,0.6c-0.2,0.2-0.4,0.2-0.6,0.2h-6.3c-0.2,0-0.4-0.1-0.6-0.2
		c-0.2-0.2-0.2-0.4-0.2-0.6V45.2H91c-0.2,0-0.4-0.1-0.6-0.2c-0.2-0.2-0.2-0.4-0.2-0.6v-5c0-0.2,0.1-0.4,0.2-0.6
		C90.6,38.7,90.8,38.6,91,38.6z"/>
	<path class="st0" d="M136.1,58c-2,1.5-4.8,2.2-8.2,2.2c-3.5,0-6.2-0.7-8.2-2.2c-2-1.5-3-3.8-3-6.9V39.4c0-0.2,0.1-0.4,0.2-0.6
		c0.2-0.2,0.4-0.2,0.6-0.2h6.4c0.2,0,0.4,0.1,0.6,0.2c0.2,0.2,0.2,0.4,0.2,0.6v12c0,0.8,0.3,1.5,0.8,1.9c0.6,0.4,1.3,0.7,2.3,0.7
		c1,0,1.7-0.2,2.3-0.7s0.8-1.1,0.8-1.9v-12c0-0.2,0.1-0.4,0.2-0.6c0.2-0.2,0.4-0.2,0.6-0.2h6.4c0.2,0,0.4,0.1,0.6,0.2
		c0.2,0.2,0.2,0.4,0.2,0.6v11.6C139.1,54.2,138.1,56.5,136.1,58z M122.2,33.6h3.6c0.2,0,0.4,0.1,0.5,0.2c0.1,0.1,0.2,0.3,0.2,0.5
		v2.2c0,0.2-0.1,0.4-0.2,0.5c-0.1,0.1-0.3,0.2-0.5,0.2h-3.6c-0.2,0-0.4-0.1-0.5-0.2c-0.1-0.1-0.2-0.3-0.2-0.5v-2.2
		c0-0.2,0.1-0.4,0.2-0.5C121.8,33.7,122,33.6,122.2,33.6z M129.9,33.6h3.6c0.2,0,0.4,0.1,0.5,0.2c0.1,0.1,0.2,0.3,0.2,0.5v2.2
		c0,0.2-0.1,0.4-0.2,0.5c-0.1,0.1-0.3,0.2-0.5,0.2h-3.6c-0.2,0-0.4-0.1-0.5-0.2c-0.1-0.1-0.2-0.3-0.2-0.5v-2.2
		c0-0.2,0.1-0.4,0.2-0.5C129.6,33.7,129.7,33.6,129.9,33.6z"/>
	<path class="st0" d="M166.3,59.2c0,0.1,0.1,0.2,0.1,0.3c0,0.1-0.1,0.3-0.2,0.4s-0.3,0.2-0.5,0.2h-7c-0.6,0-1-0.3-1.3-0.8l-2.7-6.1
		h-2.6v6c0,0.2-0.1,0.4-0.2,0.6c-0.2,0.2-0.4,0.2-0.6,0.2h-6.7c-0.2,0-0.4-0.1-0.6-0.2c-0.2-0.2-0.2-0.4-0.2-0.6V39.5
		c0-0.2,0.1-0.4,0.2-0.6c0.2-0.2,0.4-0.2,0.6-0.2h12c2.8,0,5,0.7,6.7,2c1.6,1.3,2.5,3.2,2.5,5.5c0,2.8-1.1,4.8-3.2,6.1L166.3,59.2z
		 M152.1,44.4v3.3h3.9c0.5,0,0.8-0.1,1-0.4c0.2-0.3,0.4-0.7,0.4-1.1c0-0.5-0.1-0.8-0.4-1.2c-0.2-0.3-0.6-0.5-1.1-0.5H152.1z"/>
	<path class="st0" d="M177.9,54.2h12.3c0.2,0,0.4,0.1,0.6,0.2c0.2,0.2,0.2,0.4,0.2,0.6v4.3c0,0.2-0.1,0.4-0.2,0.6
		c-0.2,0.2-0.4,0.2-0.6,0.2h-19.5c-0.2,0-0.4-0.1-0.6-0.2c-0.2-0.2-0.2-0.4-0.2-0.6V39.5c0-0.2,0.1-0.4,0.2-0.6
		c0.2-0.2,0.4-0.2,0.6-0.2h19.2c0.2,0,0.4,0.1,0.6,0.2c0.2,0.2,0.2,0.4,0.2,0.6v4.3c0,0.2-0.1,0.4-0.2,0.6c-0.2,0.2-0.4,0.2-0.6,0.2
		h-12v1.9h10.3c0.2,0,0.4,0.1,0.6,0.2c0.2,0.2,0.2,0.4,0.2,0.6v4c0,0.2-0.1,0.4-0.2,0.6c-0.2,0.2-0.4,0.2-0.6,0.2h-10.3V54.2z"/>
	<path class="st0" d="M210.4,38.6h5.7c0.2,0,0.4,0.1,0.6,0.2c0.2,0.2,0.2,0.4,0.2,0.6v19.9c0,0.2-0.1,0.4-0.2,0.6
		c-0.2,0.2-0.4,0.2-0.6,0.2h-5c-0.5,0-0.9-0.2-1.2-0.6l-6.7-8.6v8.4c0,0.2-0.1,0.4-0.2,0.6c-0.2,0.2-0.4,0.2-0.6,0.2h-5.7
		c-0.2,0-0.4-0.1-0.6-0.2c-0.2-0.2-0.2-0.4-0.2-0.6V39.5c0-0.2,0.1-0.4,0.2-0.6c0.2-0.2,0.4-0.2,0.6-0.2h5c0.5,0,0.9,0.2,1.2,0.6
		l6.7,9.3v-9.1c0-0.2,0.1-0.4,0.2-0.6C209.9,38.7,210.1,38.6,210.4,38.6z"/>
</g>
<g>
	<rect x="77.1" y="5.1" class="st0" width="1.8" height="55.5"/>
</g>
<circle class="st1" cx="33.4" cy="32.5" r="32.4"/>
<g>
	<path class="st2" d="M9.9,22.1h12c3,0,5.4,0.7,7.2,2.2c1.8,1.5,2.7,3.4,2.7,5.7s-0.7,4.1-2.2,5.5c-1.5,1.4-4,2-7.6,2h-4.2v6.2
		c0,0.2-0.1,0.4-0.3,0.6c-0.2,0.2-0.4,0.3-0.6,0.3H9.9c-0.2,0-0.4-0.1-0.6-0.3C9.1,44.2,9,44,9,43.7V23c0-0.2,0.1-0.4,0.3-0.6
		C9.5,22.2,9.7,22.1,9.9,22.1z M17.7,28.1v3.5h4.1c0.5,0,0.9-0.1,1.2-0.4c0.3-0.3,0.5-0.7,0.5-1.3c0-0.5-0.1-1-0.4-1.3
		c-0.3-0.3-0.7-0.5-1.2-0.5H17.7z"/>
	<path class="st2" d="M58.6,43.6c0,0.1,0.1,0.2,0.1,0.4c0,0.2-0.1,0.3-0.2,0.4c-0.1,0.1-0.3,0.2-0.5,0.2h-7.3
		c-0.6,0-1.1-0.3-1.3-0.8l-2.8-6.3h-2.7v6.3c0,0.2-0.1,0.4-0.3,0.6c-0.2,0.2-0.4,0.3-0.6,0.3H36c-0.2,0-0.4-0.1-0.6-0.3
		c-0.2-0.2-0.3-0.4-0.3-0.6V23c0-0.2,0.1-0.4,0.3-0.6c0.2-0.2,0.4-0.3,0.6-0.3h12.5c2.9,0,5.2,0.7,7,2.1c1.7,1.4,2.6,3.3,2.6,5.7
		c0,2.9-1.1,5-3.4,6.3L58.6,43.6z M43.8,28.1v3.4h4c0.5,0,0.8-0.2,1.1-0.5c0.3-0.3,0.4-0.7,0.4-1.2c0-0.5-0.1-0.9-0.4-1.2
		c-0.2-0.4-0.6-0.5-1.1-0.5H43.8z"/>
</g>
</svg>
