<?xml version="1.0" encoding="utf-8"?>
<!-- Generator: Adobe Illustrator 28.1.0, SVG Export Plug-In . SVG Version: 6.00 Build 0)  -->
<svg version="1.1" id="Ebene_1" xmlns="http://www.w3.org/2000/svg" xmlns:xlink="http://www.w3.org/1999/xlink" x="0px" y="0px"
	 viewBox="0 0 66 66" style="enable-background:new 0 0 66 66;" xml:space="preserve">
<style type="text/css">
	.st0{fill:#FF9800;}
	.st1{fill:#FFFFFF;}
</style>
<circle class="st0" cx="33" cy="33.3" r="32.4"/>
<g>
	<path class="st1" d="M9.5,22.9h12c3,0,5.4,0.7,7.2,2.2s2.7,3.4,2.7,5.7s-0.7,4.1-2.2,5.5s-4,2-7.6,2h-4.2v6.2
		c0,0.2-0.1,0.4-0.3,0.6c-0.2,0.2-0.4,0.3-0.6,0.3h-7c-0.2,0-0.4-0.1-0.6-0.3c-0.2-0.1-0.3-0.3-0.3-0.6V23.8c0-0.2,0.1-0.4,0.3-0.6
		C9.1,23,9.3,22.9,9.5,22.9z M17.3,28.9v3.5h4.1c0.5,0,0.9-0.1,1.2-0.4c0.3-0.3,0.5-0.7,0.5-1.3c0-0.5-0.1-1-0.4-1.3
		s-0.7-0.5-1.2-0.5C21.5,28.9,17.3,28.9,17.3,28.9z"/>
	<path class="st1" d="M58.2,44.4c0,0.1,0.1,0.2,0.1,0.4s-0.1,0.3-0.2,0.4c-0.1,0.1-0.3,0.2-0.5,0.2h-7.3c-0.6,0-1.1-0.3-1.3-0.8
		l-2.8-6.3h-2.7v6.3c0,0.2-0.1,0.4-0.3,0.6c-0.2,0.2-0.4,0.3-0.6,0.3h-7c-0.2,0-0.4-0.1-0.6-0.3c-0.2-0.2-0.3-0.4-0.3-0.6V23.8
		c0-0.2,0.1-0.4,0.3-0.6s0.4-0.3,0.6-0.3h12.5c2.9,0,5.2,0.7,7,2.1c1.7,1.4,2.6,3.3,2.6,5.7c0,2.9-1.1,5-3.4,6.3L58.2,44.4z
		 M43.4,28.9v3.4h4c0.5,0,0.8-0.2,1.1-0.5s0.4-0.7,0.4-1.2s-0.1-0.9-0.4-1.2c-0.2-0.4-0.6-0.5-1.1-0.5
		C47.4,28.9,43.4,28.9,43.4,28.9z"/>
</g>
</svg>
