<?xml version="1.0" encoding="utf-8"?>
<!-- Generator: Adobe Illustrator 21.0.0, SVG Export Plug-In . SVG Version: 6.00 Build 0)  -->
<svg version="1.1" xmlns="http://www.w3.org/2000/svg" xmlns:xlink="http://www.w3.org/1999/xlink" x="0px" y="0px"
	 viewBox="0 0 80 80" style="enable-background:new 0 0 80 80;" xml:space="preserve">
<style type="text/css">
	.st0{fill:#FFF2E1;}
	.st1{fill:#FF9800;}
	.st2{display:none;}
	.st3{display:inline;}
	.st4{display:inline;fill:#FF9800;}
	.st5{fill:#FF9800;stroke:#FF9800;stroke-miterlimit:10;}
</style>
<g id="Hintergrund">
	<g>
		<path class="st0" d="M40,77.5C19.3,77.5,2.5,60.7,2.5,40S19.3,2.5,40,2.5S77.5,19.3,77.5,40S60.7,77.5,40,77.5z"/>
		<path class="st1" d="M40,4c19.9,0,36,16.1,36,36S59.9,76,40,76S4,59.9,4,40S20.1,4,40,4 M40,1C18.5,1,1,18.5,1,40s17.5,39,39,39
			s39-17.5,39-39S61.5,1,40,1L40,1z"/>
	</g>
</g>
<g id="Beratung" class="st2">
	<g class="st3">
		<path class="st1" d="M25.3,22.2c2.9-1.2,6.1-1.8,9.5-1.8c3.4,0,6.6,0.6,9.5,1.8c2.9,1.2,5.2,2.9,6.9,5c1.7,2.1,2.5,4.4,2.5,6.9
			c0,2.5-0.8,4.8-2.5,6.9c-1.7,2.1-4,3.8-6.9,5c-2.9,1.2-6.1,1.8-9.5,1.8c-1.5,0-3.1-0.1-4.7-0.4c-2.2,1.6-4.7,2.7-7.4,3.4
			c-0.6,0.2-1.4,0.3-2.3,0.4h-0.1c-0.2,0-0.4-0.1-0.5-0.2c-0.2-0.1-0.3-0.3-0.3-0.6c0-0.1,0-0.1,0-0.2c0-0.1,0-0.1,0-0.2
			c0-0.1,0-0.1,0.1-0.2c0-0.1,0-0.1,0.1-0.1c0,0,0-0.1,0.1-0.1c0-0.1,0.1-0.1,0.1-0.1c0,0,0.1-0.1,0.1-0.1c0.1-0.1,0.1-0.1,0.1-0.1
			c0.1-0.1,0.3-0.3,0.6-0.7c0.3-0.3,0.6-0.6,0.7-0.8s0.3-0.4,0.6-0.8c0.3-0.3,0.5-0.7,0.7-1s0.4-0.8,0.5-1.2c-2.2-1.3-4-2.9-5.2-4.7
			c-1.3-1.9-1.9-3.9-1.9-6c0-2.5,0.8-4.8,2.5-6.9C20.1,25.1,22.4,23.4,25.3,22.2z M42.4,25.2c-2.4-0.9-4.9-1.4-7.7-1.4
			s-5.3,0.5-7.7,1.4c-2.4,0.9-4.3,2.2-5.7,3.8c-1.4,1.6-2.1,3.3-2.1,5.1c0,1.5,0.5,2.9,1.4,4.2c0.9,1.4,2.3,2.5,4,3.5l2.6,1.5
			l-0.9,2.2c0.6-0.4,1.2-0.7,1.7-1l1.2-0.8l1.4,0.3c1.4,0.2,2.8,0.4,4.1,0.4c2.7,0,5.3-0.5,7.7-1.4c2.4-0.9,4.3-2.2,5.7-3.8
			c1.4-1.6,2.1-3.3,2.1-5.1c0-1.8-0.7-3.5-2.1-5.1C46.7,27.4,44.8,26.1,42.4,25.2z M56.8,51.7c0.2,0.4,0.4,0.8,0.5,1.2
			s0.4,0.7,0.7,1s0.5,0.6,0.6,0.8c0.1,0.2,0.4,0.5,0.7,0.8c0.3,0.3,0.5,0.6,0.6,0.7c0,0,0.1,0.1,0.1,0.1c0.1,0.1,0.1,0.1,0.1,0.1
			c0,0,0.1,0.1,0.1,0.1c0,0.1,0.1,0.1,0.1,0.1c0,0,0,0.1,0.1,0.1c0,0.1,0,0.1,0.1,0.2c0,0.1,0,0.1,0,0.2c0,0.1,0,0.1,0,0.2
			c-0.1,0.2-0.2,0.4-0.3,0.6c-0.2,0.1-0.4,0.2-0.6,0.2c-0.9-0.1-1.7-0.3-2.3-0.4c-2.8-0.7-5.2-1.9-7.4-3.4c-1.6,0.3-3.2,0.4-4.7,0.4
			c-4.8,0-9.1-1.2-12.6-3.5c1,0.1,1.8,0.1,2.4,0.1c2.9,0,5.6-0.4,8.3-1.2c2.6-0.8,5-2,7.1-3.5c2.2-1.6,3.9-3.5,5.1-5.7
			c1.2-2.1,1.8-4.4,1.8-6.8c0-1.4-0.2-2.7-0.6-4.1c2.3,1.3,4.1,2.9,5.5,4.8c1.3,1.9,2,4,2,6.2c0,2.1-0.6,4.1-1.9,6
			C60.7,48.8,59,50.4,56.8,51.7z"/>
	</g>
</g>
<g id="Wartung_1" class="st2">
	<g class="st3">
		<g>
			<g>
				<path class="st1" d="M63.8,39.2c0-0.7-0.5-1.3-1.2-1.5l-3.4-0.6c-0.2-1-0.4-2-0.8-2.9l2.6-2.3c0.6-0.5,0.7-1.3,0.3-1.9l-1.5-2.6
					c-0.4-0.6-1.1-0.9-1.8-0.7L54.7,28c-0.7-0.8-1.4-1.5-2.1-2.1l1.2-3.3c0.2-0.7,0-1.4-0.7-1.8l-2.6-1.5c-0.6-0.4-1.4-0.2-1.9,0.3
					l-2.2,2.7c-1-0.3-1.9-0.6-2.9-0.8L42.8,18c-0.1-0.7-0.8-1.2-1.5-1.2h0l-3,0c-0.7,0-1.3,0.5-1.5,1.2l-0.6,3.4
					c-1,0.2-2,0.4-2.9,0.8L31,19.6c-0.5-0.6-1.3-0.7-1.9-0.3l-2.6,1.5c-0.6,0.4-0.9,1.1-0.7,1.8l1.2,3.3c-0.8,0.7-1.5,1.4-2.1,2.1
					l-3.3-1.2c-0.7-0.2-1.4,0-1.8,0.7l-1.5,2.6c-0.4,0.6-0.2,1.4,0.3,1.9l2.7,2.2c-0.3,1-0.6,1.9-0.8,2.9L17,37.9
					c-0.7,0.1-1.2,0.8-1.2,1.5l0,3c0,0.7,0.5,1.3,1.2,1.5l3.4,0.6c0.2,1,0.4,2,0.8,2.9l-2.6,2.3c-0.6,0.5-0.7,1.3-0.3,1.9l1.5,2.6
					c0.4,0.6,1.1,0.9,1.8,0.7l3.3-1.2c0.7,0.8,1.4,1.5,2.1,2.1L25.9,59c-0.2,0.7,0,1.4,0.7,1.8l2.6,1.5c0.6,0.4,1.4,0.2,1.9-0.3
					l2.2-2.7c1,0.3,1.9,0.6,2.9,0.8l0.7,3.4c0.1,0.7,0.8,1.2,1.5,1.2c0,0,0,0,0,0l3,0c0.7,0,1.3-0.5,1.5-1.2l0.6-3.4
					c1-0.2,2-0.4,2.9-0.8l2.3,2.6c0.5,0.6,1.3,0.7,1.9,0.3l2.6-1.5c0.6-0.4,0.9-1.1,0.7-1.8l-1.2-3.3c0.8-0.7,1.5-1.4,2.1-2.1
					l3.3,1.2c0.7,0.2,1.4,0,1.8-0.7l1.5-2.6c0.4-0.6,0.2-1.4-0.3-1.9l-2.7-2.2c0.3-1,0.6-1.9,0.8-2.9l3.4-0.7
					c0.7-0.1,1.2-0.8,1.2-1.5L63.8,39.2z M39.8,57.7c-9.3,0-16.9-7.6-16.9-16.9c0-9.3,7.6-16.9,16.9-16.9c9.3,0,16.9,7.6,16.9,16.9
					C56.7,50.1,49.2,57.7,39.8,57.7z"/>
			</g>
		</g>
	</g>
	<g class="st3">
		<path class="st1" d="M31.1,36.5c0.7-0.7,1.5-1,2.4-1h2.3c-0.4-0.9-0.6-1.7-0.6-2.6c0-1,0.2-1.9,0.5-2.5c0.3-0.6,0.8-1.1,1.4-1.4
			c0.6-0.3,1.3-0.4,2-0.4c0.5,0,0.9,0.2,1.2,0.5c0.4,0.4,0.7,0.9,0.8,1.4s0.3,1.1,0.4,1.7c0.1,0.5,0.3,0.9,0.5,1.1
			c0.4,0.5,0.9,1,1.4,1.7c0.9,1.2,1.5,1.9,1.8,2.1h3.7c0.5,0,0.9,0.2,1.2,0.5c0.3,0.3,0.5,0.7,0.5,1.2v8.5c0,0.5-0.2,0.9-0.5,1.2
			c-0.3,0.3-0.7,0.5-1.2,0.5h-3.8c-0.2,0-0.8,0.2-1.8,0.5c-1.1,0.4-2.1,0.7-2.9,0.9c-0.8,0.2-1.7,0.3-2.5,0.3h-1.2h-0.5
			c-1.3,0-2.3-0.4-3-1.1c-0.8-0.7-1.1-1.7-1.1-2.9c-0.5-0.7-0.8-1.5-0.8-2.4c0-0.2,0-0.4,0-0.6c-0.3-0.6-0.5-1.2-0.5-1.9
			c0-0.3,0-0.6,0.1-0.9c-0.4-0.7-0.7-1.4-0.7-2.2C30.1,38,30.5,37.2,31.1,36.5z M32.1,40c0.2,0.4,0.4,0.6,0.7,0.6
			c-0.1,0.2-0.2,0.4-0.3,0.6c-0.1,0.3-0.1,0.5-0.1,0.7c0,0.6,0.2,1.1,0.7,1.6c-0.2,0.3-0.2,0.6-0.2,0.9c0,0.3,0.1,0.7,0.2,1
			c0.2,0.3,0.4,0.6,0.6,0.7c0,0.3-0.1,0.5-0.1,0.7c0,1.5,0.9,2.2,2.6,2.2h1.6c1.2,0,2.7-0.3,4.6-1c0,0,0.2-0.1,0.4-0.1
			c0.2-0.1,0.4-0.1,0.5-0.2c0.1,0,0.3-0.1,0.5-0.2c0.2-0.1,0.4-0.1,0.5-0.1c0.1,0,0.3-0.1,0.4-0.1c0.2,0,0.3,0,0.4,0h3.6v-8.5
			l-3.6,0c-0.1,0-0.3,0-0.5-0.1c-0.2-0.1-0.4-0.2-0.5-0.4c-0.2-0.2-0.4-0.3-0.5-0.5c-0.2-0.2-0.3-0.4-0.5-0.6
			c-0.2-0.2-0.3-0.4-0.5-0.6c-0.1-0.1-0.3-0.3-0.4-0.5c-0.2-0.2-0.3-0.4-0.3-0.4c-0.5-0.6-0.8-1-1-1.2c-0.4-0.4-0.6-0.9-0.8-1.5
			c-0.2-0.6-0.3-1.1-0.4-1.7c-0.1-0.5-0.3-0.9-0.5-1.1c-0.9,0-1.4,0.2-1.7,0.6C37.1,31.4,37,32,37,32.9c0,0.5,0.2,1.2,0.6,2.1
			c0.4,0.9,0.6,1.6,0.6,2.1h-4.7c-0.4,0-0.8,0.2-1.2,0.5c-0.3,0.3-0.5,0.7-0.5,1.2C31.8,39.2,31.9,39.6,32.1,40z"/>
	</g>
</g>
<g id="Wartung_2" class="st2">
	<path class="st4" d="M54.8,24c-0.3,0.4-0.8,0.6-1.4,0.6l-0.1,0c-2.5-0.4-4.7-2-5.7-4.4l0-0.1c-0.2-0.5-0.1-1,0.2-1.5l3.4-4.4
		c-2.7,0.2-5.5,1.6-7.1,3.7c-1.9,2.5-1.7,5.2-0.1,7.6l-4.9,6.2c-0.8-0.8-1.3-0.9-1.7-1.1c-0.3-0.1-0.9-0.3-1.7,0
		c-0.7,0.2-1.4,0.7-1.8,1.3c-0.3,0.4-0.5,0.9-0.6,1.3c-0.7-0.1-1.5,0.1-2,0.4c-0.7,0.5-1.4,1.4-1.4,2.3c-0.7,0.1-1.4,0.5-1.8,1
		c-0.6,0.7-0.7,1.7-0.5,2.5c-0.5,0.2-1,0.6-1.5,1.2c-1.8,2,0.2,4.2,1,5c0.2,0.2,0.4,0.4,0.6,0.6l-1.2,1.6l0,0l-1.5,1.9
		c-2.3-0.4-4.8,0.5-6.3,2.7c-1.4,2.1-1.4,4.9,0,7c2.3,3.4,7,3.7,9.7,1c1.8-1.8,2.3-4.5,1.4-6.7l2.4-3c1.7,1.6,3.5,2.9,5.5,3.9
		c0.6,0.3,1.1,0.6,1.6,0.8c1.9,0.9,3.1,1.5,4.5,3.3l0.1,0.1c0.3,0.4,0.8,1,1.6,1.3c2.2,0.7,5.2-1.4,7.2-3.8c0.7-0.8,2.8-3.7,1.9-5.4
		c-0.2-0.4-0.5-0.6-0.8-0.7c-0.1-0.1-0.3-0.2-0.5-0.3c-1.6-1.1-2.2-3.2-2.5-4.6c-0.5-1.9-0.4-2.8-0.3-3.7c0.1-0.9,0.2-1.7-0.4-3.1
		c-0.2-0.4-0.3-0.6-0.7-1c-0.4-0.4-1.3-1.4-3.3-3.7l0,0c-0.1-0.1-0.1-0.1-0.2-0.2l3.1-4c2.6,1,5.4,0.6,7.3-1.9
		c1.6-2.1,2.3-5.1,1.8-7.8L54.8,24z M26.7,58.4c-1.4,1.4-3.7,1.4-5.1,0c-1.4-1.4-1.4-3.7,0-5.1s3.7-1.4,5.1,0
		C28.1,54.7,28.1,57,26.7,58.4z M45.1,34.4c2,2.4,2.9,3.3,3.3,3.8c0.4,0.4,0.4,0.4,0.5,0.6c0.5,1,0.4,1.6,0.3,2.4
		c-0.1,0.9-0.2,2.1,0.3,4.2c0.4,1.6,1,4,3.1,5.5c0.3,0.2,0.5,0.3,0.7,0.4c0.1,0,0.2,0.1,0.2,0.1c0,0,0,0,0,0c0.3,0.5-0.2,2-1.7,3.8
		c-1.9,2.3-4.4,3.8-5.6,3.4c-0.4-0.1-0.7-0.5-0.9-0.8l-0.1-0.1c-1.6-2-3.1-2.7-5-3.7c-0.5-0.2-1-0.5-1.6-0.8c-2-1-3.8-2.4-5.5-4
		c-1.5-1.5-3.6-3.5-4.8-4.8c-1.5-1.7-1.5-2.4-0.9-3.1c0.7-0.8,1.1-0.9,1.4-0.6l3.1,3.1c0.3,0.3,0.7,0.3,1,0c0.3-0.3,0.3-0.7,0-1
		l-3.2-3.2c-0.8-0.8-0.7-1.4-0.2-2c0.3-0.4,1-0.8,1.4-0.4l3.8,3.7c0.3,0.3,0.7,0.3,1,0c0.3-0.3,0.3-0.7,0-1l-3.8-3.8
		c-0.4-0.4-0.1-1.2,0.4-1.6c0.4-0.2,1-0.6,1.7,0.1l3.5,3.5c0.3,0.3,0.7,0.3,1,0c0.3-0.3,0.3-0.7,0-1L35,33.9
		c-0.3-0.3-0.1-0.8,0.2-1.2c0.3-0.4,0.7-0.7,1.1-0.8c0.4-0.1,0.8,0,1,0c0.2,0.1,0.7,0.2,2.3,2c0.2,0.2,0.3,0.4,0.5,0.5
		c0.2,0.3,2.2,2.4,2.4,2.5c0.2,0.2,0.6,0.7,1.2,0.3c0.2-0.1,0.4-0.3,0.1-0.9c0,0,0-0.1-0.1-0.1L45.1,34.4L45.1,34.4z"/>
</g>
<g id="Wartung_3" class="st2">
	<g class="st3">
		<path class="st1" d="M46.3,38.2v4.6c0,0.2-0.1,0.3-0.2,0.5c-0.1,0.2-0.2,0.2-0.4,0.3l-3.9,0.6c-0.2,0.6-0.5,1.2-0.8,1.9
			c0.6,0.8,1.3,1.8,2.2,2.9c0.1,0.2,0.2,0.4,0.2,0.5c0,0.2-0.1,0.4-0.2,0.5c-0.4,0.5-1.1,1.2-2.1,2.2c-1,1-1.6,1.5-2,1.5
			c-0.2,0-0.4-0.1-0.5-0.2l-2.9-2.2c-0.6,0.3-1.3,0.6-1.9,0.8c-0.2,1.8-0.4,3.1-0.6,3.9c-0.1,0.4-0.4,0.6-0.7,0.6h-4.7
			c-0.2,0-0.4-0.1-0.5-0.2c-0.1-0.1-0.2-0.3-0.2-0.4L26.6,52c-0.6-0.2-1.2-0.4-1.9-0.8l-2.9,2.2c-0.1,0.1-0.3,0.2-0.5,0.2
			c-0.2,0-0.4-0.1-0.5-0.2c-2.4-2.2-3.6-3.5-3.6-4c0-0.1,0.1-0.3,0.2-0.5c0.2-0.2,0.5-0.7,1-1.3c0.5-0.6,0.9-1.2,1.2-1.5
			c-0.4-0.7-0.7-1.4-0.9-2l-3.8-0.6c-0.2,0-0.3-0.1-0.4-0.2c-0.1-0.1-0.2-0.3-0.2-0.5v-4.6c0-0.2,0.1-0.3,0.2-0.5
			c0.1-0.2,0.2-0.2,0.4-0.3l3.9-0.6c0.2-0.6,0.5-1.2,0.8-1.9c-0.6-0.8-1.3-1.8-2.2-2.9c-0.1-0.2-0.2-0.4-0.2-0.5
			c0-0.2,0.1-0.4,0.2-0.5c0.4-0.5,1.1-1.2,2-2.2c1-1,1.7-1.5,2-1.5c0.2,0,0.4,0.1,0.5,0.2l2.9,2.3c0.6-0.3,1.2-0.6,1.9-0.8
			c0.2-1.8,0.4-3.1,0.6-3.9c0.1-0.4,0.4-0.6,0.8-0.6h4.7c0.2,0,0.4,0.1,0.5,0.2c0.1,0.1,0.2,0.3,0.2,0.4l0.6,3.8
			c0.6,0.2,1.2,0.4,1.9,0.8l2.9-2.2c0.1-0.1,0.3-0.2,0.5-0.2c0.2,0,0.4,0.1,0.5,0.2c2.4,2.2,3.6,3.6,3.6,4c0,0.1-0.1,0.3-0.2,0.5
			c-0.2,0.3-0.5,0.7-1.1,1.4c-0.5,0.6-0.9,1.1-1.1,1.5c0.4,0.8,0.7,1.5,0.8,2.1l3.8,0.6c0.2,0,0.3,0.1,0.4,0.3
			C46.2,37.8,46.3,38,46.3,38.2z M34.8,45c1.3-1.2,1.9-2.8,1.9-4.5c0-1.8-0.6-3.3-1.9-4.5C33.5,34.7,32,34,30.3,34
			c-1.8,0-3.3,0.6-4.5,1.9c-1.3,1.2-1.9,2.8-1.9,4.5c0,1.8,0.6,3.3,1.9,4.5c1.3,1.3,2.8,1.9,4.5,1.9C32,46.8,33.5,46.2,34.8,45z
			 M62.3,25.9v3.5c0,0.3-1.2,0.5-3.7,0.8c-0.2,0.5-0.4,0.9-0.8,1.3c0.9,1.9,1.3,3,1.3,3.5c0,0.1,0,0.1-0.1,0.2
			c-2,1.2-3.1,1.8-3.1,1.8c-0.1,0-0.5-0.4-1.1-1.2c-0.6-0.8-1.1-1.3-1.3-1.7c-0.3,0-0.6,0-0.7,0c-0.2,0-0.4,0-0.8,0
			c-0.2,0.3-0.7,0.9-1.3,1.7c-0.6,0.8-1,1.2-1.1,1.2c0,0-1.1-0.6-3.1-1.8c-0.1,0-0.1-0.1-0.1-0.2c0-0.4,0.4-1.6,1.3-3.5
			c-0.3-0.4-0.6-0.8-0.8-1.3c-2.5-0.2-3.7-0.5-3.7-0.8v-3.5c0-0.3,1.2-0.5,3.7-0.8c0.2-0.5,0.5-0.9,0.8-1.3c-0.9-1.9-1.3-3-1.3-3.5
			c0-0.1,0-0.1,0.1-0.2c0.1,0,0.4-0.2,0.9-0.5c0.5-0.3,1-0.6,1.5-0.8c0.5-0.3,0.7-0.4,0.8-0.4c0.1,0,0.5,0.4,1.1,1.2
			c0.6,0.8,1.1,1.3,1.3,1.7c0.3,0,0.6-0.1,0.8-0.1c0.2,0,0.4,0,0.7,0.1c0.9-1.2,1.6-2.1,2.3-2.8l0.1-0.1c0.1,0,1.1,0.6,3.1,1.8
			c0.1,0.1,0.1,0.1,0.1,0.2c0,0.4-0.4,1.6-1.3,3.5c0.3,0.4,0.5,0.8,0.8,1.3C61,25.4,62.3,25.6,62.3,25.9z M62.3,51.5V55
			c0,0.3-1.2,0.5-3.7,0.8c-0.2,0.4-0.4,0.9-0.8,1.3c0.9,1.9,1.3,3,1.3,3.5c0,0.1,0,0.1-0.1,0.2c-2,1.2-3.1,1.8-3.1,1.8
			c-0.1,0-0.5-0.4-1.1-1.2c-0.6-0.8-1.1-1.3-1.3-1.7c-0.3,0-0.6,0.1-0.7,0.1c-0.2,0-0.4,0-0.8-0.1c-0.2,0.4-0.7,0.9-1.3,1.7
			c-0.6,0.8-1,1.2-1.1,1.2c0,0-1.1-0.6-3.1-1.8c-0.1-0.1-0.1-0.1-0.1-0.2c0-0.4,0.4-1.6,1.3-3.5c-0.3-0.4-0.6-0.8-0.8-1.3
			c-2.5-0.3-3.7-0.5-3.7-0.8v-3.5c0-0.3,1.2-0.5,3.7-0.8c0.2-0.5,0.5-0.9,0.8-1.3c-0.9-1.9-1.3-3-1.3-3.4c0-0.1,0-0.1,0.1-0.2
			c0.1,0,0.4-0.2,0.9-0.5c0.5-0.3,1-0.6,1.5-0.9c0.5-0.3,0.7-0.4,0.8-0.4c0.1,0,0.5,0.4,1.1,1.2c0.6,0.8,1.1,1.3,1.3,1.7
			c0.3,0,0.6-0.1,0.8-0.1c0.2,0,0.4,0,0.7,0.1c0.9-1.2,1.6-2.1,2.3-2.8l0.1,0c0.1,0,1.1,0.6,3.1,1.8c0.1,0.1,0.1,0.1,0.1,0.2
			c0,0.4-0.4,1.6-1.3,3.4c0.3,0.4,0.5,0.8,0.8,1.3C61,51,62.3,51.2,62.3,51.5z M55.9,27.6c0-0.9-0.3-1.6-0.9-2.2
			c-0.6-0.6-1.4-0.9-2.2-0.9c-0.9,0-1.6,0.3-2.3,0.9c-0.6,0.6-0.9,1.4-0.9,2.2c0,0.9,0.3,1.6,0.9,2.3c0.6,0.6,1.4,0.9,2.3,0.9
			c0.9,0,1.6-0.3,2.3-0.9C55.5,29.3,55.9,28.5,55.9,27.6z M55.9,53.2c0-0.9-0.3-1.6-0.9-2.2c-0.6-0.6-1.4-0.9-2.2-0.9
			c-0.9,0-1.6,0.3-2.3,0.9c-0.6,0.6-0.9,1.4-0.9,2.2c0,0.9,0.3,1.6,0.9,2.3c0.6,0.6,1.4,0.9,2.3,0.9c0.9,0,1.6-0.3,2.3-0.9
			C55.5,54.9,55.9,54.1,55.9,53.2z"/>
	</g>
</g>
<g id="Montage" class="st2">
	<g class="st3">
		<path class="st1" d="M50.1,29.3c1.8-1.8,2.4-4.3,1.9-6.6c0-0.2-0.3-0.3-0.5-0.1l-3.9,3.9c-0.5,0.5-1.3,0.6-1.9,0.3
			c-0.6-0.3-1.2-0.7-1.9-1.4c-0.6-0.6-1-1.3-1.3-1.8c-0.3-0.6-0.2-1.4,0.3-1.9l3.9-3.9c0.2-0.2,0.1-0.4-0.1-0.5
			c-2.3-0.5-4.8,0.1-6.6,1.9c-2,2.1-2.5,5-1.5,7.6L24.7,40.7C23,40.3,21.2,40.8,20,42c-2,2-2.1,5.2-0.2,7.2c2,2.2,5.4,2.2,7.5,0.1
			c1.3-1.3,1.8-3.1,1.4-4.7l13.8-13.8C45,31.9,48,31.3,50.1,29.3z M22,47.4c-0.9-0.9-0.9-2.3,0-3.2c0.9-0.9,2.3-0.9,3.2,0
			c0.9,0.9,0.9,2.3,0,3.2C24.3,48.2,22.9,48.2,22,47.4z"/>
		<path class="st1" d="M54.7,35.9L44.6,45.9c-0.2,0.2-0.2,0.5,0,0.6l1,1c0.2,0.2,0.5,0.2,0.6,0l10.1-10.1c0.8-0.8,1.7-1.3,2.8-1.6
			c0.2-0.1,0.5-0.2,0.6-0.4l3.4-4.5c0.1-0.1,0.1-0.2,0-0.3l0,0L61.5,29c-0.1-0.1-0.2-0.1-0.3,0l-4.5,3.4c-0.2,0.2-0.4,0.4-0.4,0.6
			C56,34.1,55.5,35.1,54.7,35.9z"/>
		<path class="st1" d="M46.9,52.7l0.8-0.8c0.4-0.4,0.4-1.1,0-1.5l-5.8-5.8c-0.4-0.4-1.1-0.4-1.5,0l-0.8,0.8
			c-0.2,0.2-0.3,0.5-0.3,0.8c0,2.1-1.7,3.8-3.8,3.8l0,0c-0.3,0-0.6,0.1-0.8,0.3l-7.3,7.3c-0.3,0.3-0.4,0.9-0.2,1.3
			c0.6,1,1.5,2.2,2.6,3.4c1.3,1.3,2.5,2.2,3.6,2.8c0.4,0.3,1,0.2,1.3-0.2l7.3-7.3c0.2-0.2,0.3-0.5,0.3-0.8l0,0
			c0-2.1,1.7-3.8,3.8-3.8C46.5,53,46.7,52.9,46.9,52.7z"/>
	</g>
</g>
<g id="Vertrieb" class="st2">
	<path class="st4" d="M47.3,30.1L49,19.3c0.1-0.5-0.3-0.8-0.8-0.8l-10.9,1.8c-0.5,0.1-0.7,0.7-0.4,1.1l1.9,1.9
		c0.3,0.3,0.3,0.7,0,0.9L16.2,47c-0.3,0.3-0.3,0.7,0,0.9l3.4,3.4c0.3,0.3,0.7,0.3,0.9,0l22.8-22.8c0.3-0.3,0.7-0.3,0.9,0l1.9,1.9
		C46.5,30.9,47.2,30.7,47.3,30.1z"/>
	<path class="st4" d="M42.6,60.6l-10.9,1.8c-0.5,0.1-0.8-0.3-0.8-0.8l1.8-10.9c0.1-0.5,0.7-0.7,1.1-0.4l1.9,1.9
		c0.3,0.3,0.7,0.3,0.9,0l22.8-22.8c0.3-0.3,0.7-0.3,0.9,0l3.4,3.4c0.3,0.3,0.3,0.7,0,0.9L41,56.7c-0.3,0.3-0.3,0.7,0,0.9l1.9,1.9
		C43.4,59.9,43.1,60.6,42.6,60.6z"/>
</g>
<g id="Tore_tueren" class="st2">
	<g class="st3">
		<path class="st1" d="M52,25v21H20V25H52 M54,23H18v25h36V23L54,23z"/>
	</g>
	<g class="st3">
		<path class="st1" d="M58,35v23H42V35H58 M60,33H40v27h20V33L60,33z"/>
	</g>
</g>
<g id="Ebene_9">
	<g>
		<path class="st5" d="M20,48h-2V25c0-1.1,0.9-2,2-2h32c1.1,0,2,0.9,2,2v10h-2v-9c0-0.6-0.4-1-1-1H21c-0.6,0-1,0.4-1,1V48z"/>
	</g>
	<g>
		<path class="st5" d="M61.2,60.5h-2v-23c0-0.6-0.4-1-1-1h-14c-0.6,0-1,0.4-1,1v23h-2v-24c0-1.1,0.9-2,2-2h16c1.1,0,2,0.9,2,2V60.5z
			"/>
	</g>
	<g>
		<path class="st1" d="M50,29.5H22v-2c0-0.3,0.2-0.5,0.5-0.5h27.1c0.3,0,0.5,0.2,0.5,0.5V29.5z"/>
	</g>
	<g>
		<rect x="22" y="30.5" class="st1" width="28" height="2.5"/>
	</g>
	<path class="st1" d="M39.3,35.9c0-0.8,0.6-1.6,1.3-1.8H22v2.5h17.3V35.9z"/>
	<g>
		<path class="st5" d="M59.2,36.9L48,41.2c-0.4,0.2-0.8,0.8-0.8,1.3v23.6l-2,0v-24c0-1.1,0.7-2.3,1.6-2.6l12.8-4.9"/>
	</g>
	<ellipse transform="matrix(0.9305 -0.3664 0.3664 0.9305 -15.4701 22.483)" class="st1" cx="51.5" cy="52" rx="1.5" ry="1"/>
</g>
</svg>
