<?xml version="1.0" encoding="utf-8"?>
<!-- Generator: Adobe Illustrator 27.7.0, SVG Export Plug-In . SVG Version: 6.00 Build 0)  -->
<svg version="1.1" id="Ebene_1" xmlns="http://www.w3.org/2000/svg" xmlns:xlink="http://www.w3.org/1999/xlink" x="0px" y="0px"
	 viewBox="0 0 140 117" style="enable-background:new 0 0 140 117;" xml:space="preserve">
<style type="text/css">
	.st0{fill:#F23005;}
</style>
<path class="st0" d="M1.4,56.9c4-2.1,3.6-4.3,7.7-5.9c1.9-0.7,4-1.1,6-1.1h8.7c3.5,0,7-0.9,10-2.7l35.5-20.7
	c3.7-2.1,7.9-3.3,12.1-3.4c29.3-0.6,56.7-3.1,56.7-3.1c0.9,0,1,1.3,0.1,1.5c0,0-27.8,8.3-52.1,11.5c-0.6,0.1-0.7,1-0.1,1.2
	c3.8,1.2,16.1,3.1,16.1,3.1c0.9,0.3,0.9,1.5-0.1,1.7l-30.6,7.5c-0.9,0.2-1,1.5-0.1,1.8c4.1,1.1,18.4,2.1,18.4,2.1
	c0.9,0.2,0.9,1.5,0,1.7L61.1,59c-1.1,0.3-1.4,1.7-0.5,2.4l21.9,16.1c3.7,2.7,6.6,6.2,8.7,10.3l0.1,0.1c0.5,1-0.8,2-1.6,1.3l-6.4-5.4
	c-2.8-2.4-6.1-4-9.7-4.8h0l-33.7-7.6c-3.9-0.9-7.7-2.2-11.3-4l-12.2-6.1c-1.3-0.6-2.6-1-4.1-1.2c-4.3-0.4-9.4-2.2-10.8-1.9
	C0.9,58.3,0.8,57.2,1.4,56.9z"/>
<path class="st0" d="M99.7,45.2v32.6c0,7-3.7,13.8-10.3,19c-7.3,5.8-17.2,9-27.7,9c-10.6,0-20.4-3.2-27.7-9
	c-6.6-5.2-10.3-12-10.3-19v-6l-9.7-3.9v9.9c0,20.8,21.4,37.7,47.8,37.7c26.4,0,47.8-16.9,47.8-37.7V41.6L99.7,45.2z"/>
<polygon class="st0" points="13.9,3.7 13.9,43.9 23.6,43.8 23.6,13.4 99.7,13.4 99.7,17.7 109.4,17.1 109.4,3.7 "/>
</svg>
