<?xml version="1.0" encoding="utf-8"?>
<!-- Generator: Adobe Illustrator 27.7.0, SVG Export Plug-In . SVG Version: 6.00 Build 0)  -->
<svg version="1.1" id="Ebene_1" xmlns="http://www.w3.org/2000/svg" xmlns:xlink="http://www.w3.org/1999/xlink" x="0px" y="0px"
	 viewBox="0 0 353 54" style="enable-background:new 0 0 353 54;" xml:space="preserve">
<style type="text/css">
	.st0{fill:#FFFFFF;}
</style>
<path class="st0" d="M1,26c1.8-1,1.7-2,3.6-2.7c0.9-0.3,1.8-0.5,2.8-0.5h4.1c1.6,0,3.3-0.4,4.7-1.3l16.5-9.6c1.7-1,3.7-1.5,5.6-1.6
	C51.9,10,64.6,8.9,64.6,8.9c0.4,0,0.5,0.6,0.1,0.7c0,0-12.9,3.8-24.2,5.4c-0.3,0-0.3,0.5,0,0.5c1.8,0.6,7.5,1.4,7.5,1.4
	c0.4,0.1,0.4,0.7,0,0.8l-14.2,3.5c-0.4,0.1-0.4,0.7,0,0.8c1.9,0.5,8.5,1,8.5,1c0.4,0.1,0.4,0.7,0,0.8l-13.4,3.1
	c-0.5,0.1-0.6,0.8-0.2,1.1l10.2,7.5c1.7,1.3,3.1,2.9,4,4.8l0,0.1c0.2,0.5-0.4,1-0.8,0.6l-3-2.5c-1.3-1.1-2.8-1.9-4.5-2.2h0
	l-15.6-3.5c-1.8-0.4-3.6-1-5.2-1.9L8,28c-0.6-0.3-1.2-0.5-1.9-0.5c-2-0.2-4.4-1-5-0.9C0.8,26.6,0.7,26.1,1,26z"/>
<path class="st0" d="M46.7,20.5v15.2c0,3.3-1.7,6.4-4.8,8.8c-3.4,2.7-8,4.2-12.9,4.2c-4.9,0-9.5-1.5-12.9-4.2
	c-3.1-2.4-4.8-5.6-4.8-8.8v-2.8l-4.5-1.8v4.6c0,9.7,9.9,17.5,22.2,17.5c12.3,0,22.2-7.8,22.2-17.5V18.8L46.7,20.5z"/>
<polygon class="st0" points="6.8,1.2 6.8,19.9 11.3,19.9 11.3,5.7 46.7,5.7 46.7,7.7 51.2,7.5 51.2,1.2 "/>
<g>
	<path class="st0" d="M73.7,12.7H93v5H79.2v4.4l9.5,0V27h-9.5v10.9h-5.5V12.7z"/>
	<path class="st0" d="M108.2,11.6l14.5,26.3h-5.9l-2.6-4.8h-12l-2.5,4.8h-6.1L108.2,11.6z M111.7,28.5l-3.6-6.7l-3.6,6.7H111.7z"/>
	<path class="st0" d="M128.7,12.7h5.5l0,20.2H147v5h-18.3V12.7z"/>
	<path class="st0" d="M171.1,37.9l-11.4-12.6v12.6h-5.5V12.7h5.5v10l9.3-10h7.4l-11,11.3l13,13.9H171.1z"/>
	<path class="st0" d="M183.6,12.7h19.9v5h-14.4v4.4l10.1,0V27h-10.1v5.9h14.4v5h-19.9V12.7z"/>
	<path class="st0" d="M211.9,12.7h5.5l12.8,17.1V12.7h5.5v25.2h-5.4l-12.8-17v17h-5.5V12.7z"/>
	<path class="st0" d="M243.7,35.3l3-4.3c2.5,1.5,5.6,2.3,8.5,2.3c2.7,0,4.4-1,4.5-2.6c0.1-1.5-0.9-2.1-3.8-2.7l-3.1-0.7
		c-5.6-1.2-7.9-3.8-7.9-7.6c0-4.2,4.3-7.3,9.8-7.3c3.8,0,7.4,1.1,10,2.7l-2.8,4.3c-2-1.2-4.2-2-6.7-2c-2.6,0-4.4,0.9-4.4,2.5
		c0,1.4,1.1,2.1,3.6,2.7l3.4,0.8c5.4,1.2,7.7,3.5,7.7,7.5c0,4.4-4.2,7.5-10.4,7.6C250.9,38.2,246.6,37.1,243.7,35.3z"/>
	<path class="st0" d="M278.5,17.7h-8l0-5H292v5h-8v20.2h-5.5V17.7z"/>
	<path class="st0" d="M306,27.6l-10.6-15h6.6l6.8,9.8l6.8-9.8h6.6l-10.6,15v10.2H306V27.6z"/>
	<path class="st0" d="M328.1,12.7h5.5l12.8,17.1V12.7h5.5v25.2h-5.4l-12.8-17v17h-5.5V12.7z"/>
</g>
</svg>
