<?xml version="1.0" encoding="utf-8"?>
<!-- Generator: Adobe Illustrator 27.7.0, SVG Export Plug-In . SVG Version: 6.00 Build 0)  -->
<svg version="1.1" id="Ebene_1" xmlns="http://www.w3.org/2000/svg" xmlns:xlink="http://www.w3.org/1999/xlink" x="0px" y="0px"
	 viewBox="0 0 206 57" style="enable-background:new 0 0 206 57;" xml:space="preserve">
<style type="text/css">
	.st0{fill:#FFFFFF;}
</style>
<path class="st0" d="M1.4,27.4c2-1,1.8-2.1,3.8-2.9c1-0.4,2-0.5,3-0.5h4.3c1.7,0,3.5-0.5,5-1.3L35,12.4c1.8-1.1,3.9-1.6,6-1.7
	c14.5-0.3,28-1.5,28-1.5c0.4,0,0.5,0.7,0.1,0.7c0,0-13.7,4.1-25.8,5.7c-0.3,0-0.3,0.5,0,0.6c1.9,0.6,8,1.5,8,1.5
	c0.4,0.1,0.4,0.8,0,0.9l-15.1,3.7c-0.4,0.1-0.5,0.7,0,0.9c2,0.6,9.1,1,9.1,1c0.4,0.1,0.4,0.7,0,0.8l-14.2,3.3
	c-0.5,0.1-0.7,0.8-0.2,1.2l10.8,8c1.8,1.3,3.3,3.1,4.3,5.1l0,0.1c0.3,0.5-0.4,1-0.8,0.6l-3.2-2.7c-1.4-1.2-3-2-4.8-2.4l0,0
	l-16.6-3.7c-1.9-0.4-3.8-1.1-5.6-2l-6-3c-0.6-0.3-1.3-0.5-2-0.6c-2.1-0.2-4.7-1.1-5.3-0.9C1.1,28.1,1.1,27.6,1.4,27.4z"/>
<path class="st0" d="M49.9,21.6v16.1c0,3.5-1.8,6.8-5.1,9.4c-3.6,2.9-8.5,4.4-13.7,4.4c-5.2,0-10.1-1.6-13.7-4.4
	c-3.3-2.6-5.1-5.9-5.1-9.4v-3l-4.8-1.9v4.9c0,10.3,10.6,18.6,23.6,18.6c13,0,23.6-8.3,23.6-18.6V19.9L49.9,21.6z"/>
<polygon class="st0" points="7.6,1.1 7.6,21 12.4,20.9 12.4,5.9 49.9,5.9 49.9,8 54.7,7.8 54.7,1.1 "/>
<path class="st0" d="M74.1,15.8h19.3v5H79.6v4.4l9.5,0v4.9h-9.5V41h-5.5V15.8z"/>
<path class="st0" d="M96.1,38.4l3-4.3c2.5,1.5,5.6,2.3,8.5,2.3c2.7,0,4.4-1,4.5-2.6c0.1-1.5-0.9-2.1-3.8-2.7l-3.1-0.7
	c-5.6-1.2-7.9-3.8-7.9-7.6c0-4.2,4.3-7.3,9.8-7.3c3.8,0,7.4,1.1,10,2.7l-2.8,4.3c-2-1.2-4.2-2-6.7-2c-2.6,0-4.4,0.9-4.4,2.5
	c0,1.4,1.1,2.1,3.6,2.7l3.4,0.8c5.4,1.2,7.7,3.5,7.7,7.5c0,4.4-4.2,7.5-10.4,7.6C103.3,41.4,99,40.2,96.1,38.4z"/>
<path class="st0" d="M130.9,20.8h-8l0-5h21.5v5h-8V41h-5.5V20.8z"/>
<path class="st0" d="M158.4,30.8l-10.6-15h6.6l6.8,9.8l6.8-9.8h6.6l-10.6,15V41h-5.5V30.8z"/>
<path class="st0" d="M180.5,15.8h5.5l12.8,17.1V15.8h5.5V41h-5.4L186,24v17h-5.5V15.8z"/>
</svg>
