<?xml version="1.0" encoding="utf-8"?>
<!-- Generator: Adobe Illustrator 21.0.0, SVG Export Plug-In . SVG Version: 6.00 Build 0)  -->
<svg version="1.1" id="Ebene_1" xmlns="http://www.w3.org/2000/svg" xmlns:xlink="http://www.w3.org/1999/xlink" x="0px" y="0px"
	 viewBox="0 0 140 18" style="enable-background:new 0 0 140 18;" xml:space="preserve">
<style type="text/css">
	.st0{fill:#253C4C;}
</style>
<g>
	<path class="st0" d="M2.7,17.4c-1.8,0-2.2-0.4-2.2-1.9V2.3c0-1.3,0.2-1.7,2-1.7h0.4c1.7,0,2,0.4,2,1.7v12c0,0.6,0.3,0.9,1,0.9h10.7
		c0.7,0,0.9,0.3,0.9,1c0,0.8-0.2,1.1-0.9,1.1L2.7,17.4L2.7,17.4z"/>
	<path class="st0" d="M21.8,17.4c-1.8,0-2.2-0.4-2.2-1.9V2.6c0-1.5,0.4-1.9,2.2-1.9h15c0.7,0,0.9,0.3,0.9,1c0,0.8-0.2,1.1-0.9,1.1
		H24.9c-0.7,0-1,0.3-1,0.9v3c0,0.6,0.3,0.9,1,0.9h8.7c0.7,0,0.9,0.3,0.9,1c0,0.8-0.2,1.1-0.9,1.1h-8.7c-0.7,0-1,0.3-1,1v3.8
		c0,0.6,0.3,0.9,1,0.9h12.5c0.7,0,0.9,0.3,0.9,1c0,0.8-0.2,1.1-0.9,1.1H21.8V17.4z"/>
	<path class="st0" d="M40,9c0-5.2,1.8-8.8,11.9-8.8C62,0.2,63.8,3.8,63.8,9c0,5.1-1.8,8.8-11.9,8.8S40,14.1,40,9z M59.2,9
		c0-4.2-0.8-6.8-7.3-6.8S44.6,4.8,44.6,9s0.8,6.9,7.3,6.9C58.4,15.8,59.2,13.2,59.2,9z"/>
	<path class="st0" d="M67.6,15.7V2.6c0-1.5,0.4-1.9,2.2-1.9h10.7c4,0,7.4,0.5,7.4,5.2c0,4.6-3.6,5.3-8.2,5.3c-0.8,0-6.7,0-6.7,0
		c-0.7,0-1,0.3-1,1v3.6c0,1.3-0.2,1.7-2,1.7h-0.4C67.8,17.4,67.6,17,67.6,15.7z M79.3,9.2c2.3-0.1,3.9-0.5,3.9-3.3
		c0-2.9-1.9-3.3-4.6-3.3h-5.7c-0.7,0-1,0.3-1,0.9v5c0,0.6,0.3,0.9,0.9,0.9L79.3,9.2z"/>
	<path class="st0" d="M89.8,9c0-5.2,1.8-8.8,11.9-8.8s11.9,3.6,11.9,8.8c0,5.1-1.8,8.8-11.9,8.8S89.8,14.1,89.8,9z M109.1,9
		c0-4.2-0.8-6.8-7.3-6.8S94.5,4.8,94.5,9s0.8,6.9,7.3,6.9C108.3,15.8,109.1,13.2,109.1,9z"/>
	<path class="st0" d="M134.4,14.6c0.5,0.8,0.6,0.9,1.3,0.9s0.9-0.2,0.9-1V1.6c0-0.7,0.5-0.9,1.4-0.9c1.1,0,1.4,0.2,1.4,0.9v13.8
		c0,1.5-0.6,2-2.2,2H133c-1.7,0-2.5-0.8-3.4-2.3l-7.2-11.6c-0.5-0.7-0.7-0.8-1.3-0.8c-0.7,0-0.9,0.2-0.9,1v12.9
		c0,0.7-0.4,0.9-1.4,0.9s-1.4-0.2-1.4-0.9v-14c0-1.4,0.6-2,2.2-2h4.1c1.5,0,2.2,0.5,3,1.7L134.4,14.6z"/>
</g>
</svg>
