<?xml version="1.0" encoding="utf-8"?>
<!-- Generator: Adobe Illustrator 21.0.0, SVG Export Plug-In . SVG Version: 6.00 Build 0)  -->
<svg version="1.1" id="Ebene_1" xmlns="http://www.w3.org/2000/svg" xmlns:xlink="http://www.w3.org/1999/xlink" x="0px" y="0px"
	 viewBox="0 0 60 60" style="enable-background:new 0 0 60 60;" xml:space="preserve">
<style type="text/css">
	.st0{fill:#FF9800;}
	.st1{fill:#FFFFFF;}
</style>
<g>
	<circle class="st0" cx="30" cy="30" r="28"/>
</g>
<g>
	<path class="st1" d="M44.7,21.1c0,0.9-0.3,1.7-0.8,2.5s-1.2,1.5-2,2c-4.1,2.9-6.7,4.6-7.7,5.3c-0.1,0.1-0.3,0.2-0.7,0.5
		c-0.4,0.3-0.7,0.5-0.9,0.6c-0.2,0.2-0.5,0.3-0.9,0.5c-0.3,0.2-0.6,0.3-0.9,0.4c-0.3,0.1-0.6,0.1-0.8,0.1h0h0c-0.3,0-0.5,0-0.8-0.1
		c-0.3-0.1-0.6-0.2-0.9-0.4c-0.3-0.2-0.6-0.4-0.9-0.5c-0.2-0.2-0.5-0.4-0.9-0.6c-0.4-0.3-0.6-0.4-0.7-0.5c-1-0.7-2.4-1.7-4.3-3
		c-1.9-1.3-3-2.1-3.4-2.3c-0.7-0.5-1.3-1.1-1.9-1.9c-0.6-0.8-0.9-1.5-0.9-2.2c0-0.9,0.2-1.6,0.7-2.1c0.5-0.6,1.1-0.9,1.9-0.9h24.1
		c0.7,0,1.3,0.3,1.8,0.8C44.4,19.7,44.7,20.4,44.7,21.1z M44.7,25.9v13c0,0.7-0.3,1.3-0.8,1.9c-0.5,0.5-1.1,0.8-1.9,0.8H17.9
		c-0.7,0-1.3-0.3-1.9-0.8c-0.5-0.5-0.8-1.1-0.8-1.9v-13c0.5,0.5,1,1,1.7,1.4c4,2.7,6.7,4.6,8.1,5.7c0.6,0.5,1.1,0.8,1.5,1.1
		c0.4,0.3,0.9,0.5,1.5,0.8c0.6,0.3,1.2,0.4,1.8,0.4h0h0c0.6,0,1.2-0.1,1.8-0.4c0.6-0.3,1.2-0.5,1.5-0.8c0.4-0.3,0.9-0.6,1.5-1.1
		c1.9-1.3,4.6-3.2,8.2-5.7C43.7,26.9,44.2,26.4,44.7,25.9z"/>
</g>
</svg>
