<?xml version="1.0" encoding="utf-8"?>
<!-- Generator: Adobe Illustrator 21.0.0, SVG Export Plug-In . SVG Version: 6.00 Build 0)  -->
<svg version="1.1" xmlns="http://www.w3.org/2000/svg" xmlns:xlink="http://www.w3.org/1999/xlink" x="0px" y="0px"
	 viewBox="0 0 1440 340" style="enable-background:new 0 0 1440 340;" xml:space="preserve">
<style type="text/css">
	.st0{fill:url(#SVGID_1_);}
	.st1{fill:#FFA436;}
</style>
<g id="Ebene_2">
	<linearGradient id="SVGID_1_" gradientUnits="userSpaceOnUse" x1="0" y1="170" x2="1440" y2="170">
		<stop  offset="0.1772" style="stop-color:#FF9800"/>
		<stop  offset="0.3268" style="stop-color:#FE9C0C"/>
		<stop  offset="0.5973" style="stop-color:#FAA72C"/>
		<stop  offset="0.9555" style="stop-color:#F5B95F"/>
		<stop  offset="1" style="stop-color:#F4BB66"/>
	</linearGradient>
	<rect class="st0" width="1440" height="340"/>
</g>
<g id="Ebene_1">
	<path class="st1" d="M519.9,84.6H270.6c-2,0-3.7,1.7-3.7,3.7v9.9c0,2,1.7,3.7,3.7,3.7h249.3c2,0,3.7-1.7,3.7-3.7v-9.9
		C523.6,86.2,522,84.6,519.9,84.6z"/>
	<path class="st1" d="M514.3,257c-0.5-5.6-5.5-9.8-11.1-9.3l-11,1c-4.5,0.4-8.4,2.8-10.9,6.2l-13.9-27c-4.2-8.2-12-14-21-15.8
		c-14.4-2.9-31.8-5.1-51.5-5.1c-0.4,0-0.9,0-1.3,0c-19.2,0.1-36.1,2.3-50.3,5.1c-9,1.8-16.8,7.6-21,15.8c-4.6,9-9.3,18-13.9,27
		c-2.5-3.4-6.4-5.8-10.9-6.2l-11-1c-5.6-0.5-10.6,3.7-11.1,9.3c-0.5,5.6,3.7,10.6,9.3,11.1l16.5,1.5c-2.7,6.8-4,14-4,21.4v28.8
		c0,6,4.7,10.9,10.6,11.1c27.6,1.3,56.5,2.1,86.4,2.1c0.2,0,0.4,0,0.6,0c30.2,0,59.3-0.7,87.1-2.1c5.9-0.3,10.6-5.2,10.6-11.1v-28.8
		c0-7.3-1.4-14.6-4-21.4l16.5-1.5C510.6,267.6,514.8,262.6,514.3,257z M331.5,232.6c2.8-5.4,7.8-9.2,13.8-10.4
		c15.9-3.2,32.1-4.8,48.3-4.9c0.4,0,0.8,0,1.2,0c16.6,0,33.2,1.6,49.5,4.9c6,1.2,11,5,13.8,10.4l12.4,22.5
		c-24.1-2.3-50.5-3.7-78.9-3.7c-29.5,0-47,1.4-71.9,3.7C322.3,250.1,331.5,232.6,331.5,232.6z M349.5,294.2
		c-0.4,3.9-3.9,6.8-7.8,6.4l-19.9-1.9c-2.5-0.2-3.8-2.1-4.7-4.4c-0.4-1.1-0.6-2.3-0.7-3.5l-0.2-4.8c0-1,0-2,0.3-2.9
		c0.6-2.6,2.2-4.7,6.1-3.5l17.7,6.7C347,289.1,349.8,291.3,349.5,294.2z M426.2,321h-62.5c-5.9,0-9.8-6.2-7.2-11.5l5.3-11
		c1.3-2.8,4.1-4.5,7.2-4.5H421c3.1,0,5.9,1.8,7.2,4.5l5.3,11C436,314.8,432.2,321,426.2,321z M474.5,286.1l-0.2,4.8
		c-0.1,1.2-0.3,2.4-0.7,3.5c-0.8,2.2-2.2,4.1-4.7,4.4l-19.9,1.9c-3.9,0.4-7.4-2.5-7.8-6.4c-0.3-2.9,2.5-5.1,9.2-7.8l17.7-6.7
		c3.9-1.2,5.5,0.9,6.1,3.5C474.5,284.1,474.6,285.1,474.5,286.1z"/>
	<path class="st1" d="M519.9,133.6H270.6c-2,0-3.7,1.7-3.7,3.7v9.9c0,2,1.7,3.7,3.7,3.7h249.3c2,0,3.7-1.7,3.7-3.7v-9.9
		C523.6,135.2,522,133.6,519.9,133.6z"/>
	<path class="st1" d="M519.9,156.6H270.6c-2,0-3.7,1.7-3.7,3.7v9.9c0,2,1.7,3.7,3.7,3.7h249.3c2,0,3.7-1.7,3.7-3.7v-9.9
		C523.6,158.2,522,156.6,519.9,156.6z"/>
	<path class="st1" d="M260.5,340V133.3c0-3.2,2.6-5.9,5.9-5.9h257.9c3.2,0,5.9,2.6,5.9,5.9V340h33.5V74.1c0-8.4-6.8-15.2-15.2-15.2
		h-306c-8.4,0-15.2,6.8-15.2,15.2V340H260.5z M260.5,84.9c0-3,2.4-5.4,5.4-5.4h258.8c3,0,5.4,2.4,5.4,5.4v16.7c0,3-2.4,5.4-5.4,5.4
		H265.9c-3,0-5.4-2.4-5.4-5.4V84.9z"/>
	<path class="st1" d="M344.6,340v-3.5c-12.4-0.3-24.7-0.8-37-1.4c-2.7-0.1-5.2-0.9-7.3-2.3v7.1H344.6z"/>
	<path class="st1" d="M489.4,340v-7.1c-2.1,1.3-4.6,2.1-7.3,2.3c-12.3,0.6-24.7,1-37,1.4v3.5H489.4z"/>
</g>
</svg>
